SplineFontDB: 3.0
FontName: Besley-it-Book
FullName: Besley* Book
FamilyName: Besley*
Weight: Book
Copyright: Copyright (c) 2017, Owen Earl,,, (EwonRael@yahoo.com)
Version: 001.1
ItalicAngle: 0
UnderlinePosition: -100
UnderlineWidth: 50
Ascent: 800
Descent: 200
InvalidEm: 0
LayerCount: 2
Layer: 0 0 "Back" 1
Layer: 1 0 "Fore" 0
XUID: [1021 31 -699969567 16487490]
FSType: 0
OS2Version: 0
OS2_WeightWidthSlopeOnly: 0
OS2_UseTypoMetrics: 1
CreationTime: 1460762150
ModificationTime: 1500516294
PfmFamily: 17
TTFWeight: 400
TTFWidth: 5
LineGap: 100
VLineGap: 0
OS2TypoAscent: 800
OS2TypoAOffset: 0
OS2TypoDescent: -200
OS2TypoDOffset: 0
OS2TypoLinegap: 100
OS2WinAscent: 900
OS2WinAOffset: 0
OS2WinDescent: 300
OS2WinDOffset: 0
HheadAscent: 900
HheadAOffset: 0
HheadDescent: -200
HheadDOffset: 0
OS2CapHeight: 700
OS2XHeight: 460
OS2FamilyClass: 1024
OS2Vendor: 'PfEd'
OS2UnicodeRanges: 00000001.00000000.00000000.00000000
Lookup: 5 0 0 "'calt' Contextual Alternates lookup 1" { "'calt' Contextual Alternates lookup 1-1"  } ['calt' ('DFLT' <'dflt' > 'grek' <'dflt' > 'latn' <'dflt' > ) ]
Lookup: 1 0 0 "'ss01' Style Set 1 lookup 2" { "'ss01' Style Set 1 lookup 2-1"  } ['ss01' ('DFLT' <'dflt' > 'grek' <'dflt' > 'latn' <'dflt' > ) ]
Lookup: 4 0 1 "'liga' Standard Ligatures lookup 0" { "Not your mama's contextual ligatures"  } ['liga' ('DFLT' <'dflt' > 'grek' <'dflt' > 'latn' <'dflt' > ) ]
Lookup: 258 0 0 "Kern like there's no tomorrow" { "Get it right" [150,0,5] } ['kern' ('DFLT' <'dflt' > 'grek' <'dflt' > 'latn' <'dflt' > ) ]
MarkAttachClasses: 1
DEI: 91125
KernClass2: 19 21 "Get it right"
 3 A L
 15 B R G C U J S N
 3 D O
 7 E H I Z
 5 F P Y
 3 K X
 3 Q M
 3 V W
 9 a h m n u
 7 b e o p
 3 c q
 7 d j l i
 3 k x
 9 r v w y g
 68 quotedbl quotesingle quoteleft quoteright quotedblleft quotedblright
 1 f
 1 t
 1 T
 3 A J
 31 B D E F H I K L M N P R uniFFFD
 7 C G O Q
 3 S Z
 3 V W
 1 U
 1 X
 1 Y
 5 a g s
 7 b h k l
 9 c d e o q
 3 f i
 5 p t u
 5 m n r
 3 v w
 1 z
 12 comma period

StartChar: ampersand
Encoding: 38 38 0
Width: 870
Flags: HMW
LayerCount: 2
Fore
SplineSet
587 460 m 2
 745 460 l 2
 753 460 760 460 765 460 c 0
 780 460 785 457 785 431 c 0
 785 408 777 404 763 404 c 0
 755 404 745 405 733 405 c 0
 678 405 691 370 679 329 c 0
 660 265 629 205 589 153 c 0
 581 143 577 136 577 130 c 0
 577 122 583 116 592 101 c 0
 612 70 611 55 665 55 c 2
 709 55 l 2
 719 55 732 57 743 57 c 0
 758 57 770 54 770 39 c 0
 770 4 764 0 742 -0 c 0
 735 0 727 0 717 0 c 2
 571 0 l 2
 568 0 565 0 563 -0 c 0
 543 0 535 1 526 15 c 2
 511 39 l 2
 503 52 498 57 492 57 c 0
 484 57 476 48 459 39 c 0
 403 8 340 -10 270 -10 c 0
 137 -10 21 57 21 200 c 0
 21 332 115 385 217 427 c 0
 238 436 250 437 250 446 c 0
 250 450 246 457 240 467 c 2
 225 490 l 2
 200 529 179 578 179 613 c 0
 179 703 264 760 380 760 c 0
 487 760 566 715 566 635 c 0
 566 545 504 497 427 461 c 0
 401 448 386 446 386 435 c 0
 386 429 390 421 398 407 c 2
 521 213 l 2
 532 197 537 189 543 189 c 0
 549 189 555 198 566 215 c 0
 596 259 617 307 630 355 c 0
 634 370 638 382 638 390 c 0
 638 401 630 405 603 405 c 6
 577 405 l 2
 570 405 564 405 560 405 c 0
 549 405 545 407 545 425 c 0
 545 457 547 460 570 460 c 0
 575 460 581 460 587 460 c 2
237 377 m 0
 176 343 131 297 131 220 c 0
 131 108 211 55 305 55 c 0
 344 55 381 64 415 80 c 0
 443 93 456 101 456 114 c 0
 456 123 451 134 440 151 c 2
 303 367 l 2
 291 386 283 393 274 393 c 0
 265 393 255 387 237 377 c 0
472 640 m 0
 472 687 434 720 379 720 c 0
 322 720 277 693 277 640 c 0
 277 605 304 555 345 490 c 0
 348 486 351 484 355 484 c 0
 365 484 376 494 385 500 c 0
 436 531 472 572 472 640 c 0
EndSplineSet
EndChar

StartChar: period
Encoding: 46 46 1
Width: 200
Flags: HMW
LayerCount: 2
Fore
SplineSet
40 50 m 0
 40 83 67 110 100 110 c 0
 133 110 160 83 160 50 c 0
 160 17 133 -10 100 -10 c 0
 67 -10 40 17 40 50 c 0
EndSplineSet
EndChar

StartChar: zero
Encoding: 48 48 2
Width: 530
Flags: HMW
LayerCount: 2
Fore
SplineSet
145 280 m 0
 145 128 181 40 265 40 c 0
 359 40 385 128 385 280 c 0
 385 432 359 520 265 520 c 0
 181 520 145 432 145 280 c 0
35 280 m 0
 35 473 142 570 265 570 c 0
 398 570 495 473 495 280 c 0
 495 87 378 -10 265 -10 c 0
 142 -10 35 87 35 280 c 0
EndSplineSet
EndChar

StartChar: one
Encoding: 49 49 3
Width: 530
VWidth: 1155
Flags: HMW
LayerCount: 2
Fore
SplineSet
440 0 m 2
 110 0 l 2
 98 0 87 -1 78 -1 c 0
 63 -1 55 3 55 27 c 0
 55 52 62 56 77 56 c 0
 84 56 92 55 102 55 c 2
 178 55 l 2
 223 55 225 58 225 93 c 0
 225 97 225 102 225 107 c 2
 225 387 l 2
 225 408 221 410 209 410 c 0
 205 410 199 410 192 410 c 2
 124 410 l 2
 112 410 103 409 95 409 c 0
 80 409 72 413 72 437 c 0
 72 469 78 464 108 465 c 0
 190 467 226 480 266 569 c 0
 272 581 270 590 290 590 c 0
 295 590 299 590 302 590 c 0
 318 590 320 588 320 565 c 2
 320 95 l 2
 320 91 320 88 320 85 c 0
 320 57 322 55 356 55 c 2
 448 55 l 2
 450 55 451 55 453 55 c 0
 479 55 480 54 480 25 c 0
 480 3 475 -1 462 -1 c 0
 456 -1 449 0 440 0 c 2
EndSplineSet
EndChar

StartChar: two
Encoding: 50 50 4
Width: 530
VWidth: 1155
Flags: HMW
LayerCount: 2
Fore
SplineSet
498 110 m 0
 488 3 439 -30 360 -30 c 0
 253 -30 228 30 145 30 c 0
 125 30 111 25 101 17 c 0
 89 7 88 -20 65 -20 c 0
 37 -20 30 -16 30 -1 c 0
 30 6 31 15 33 26 c 0
 50 147 137 224 242 269 c 0
 345 313 377 356 377 420 c 0
 377 494 341 528 262 528 c 0
 188 528 135 499 135 472 c 0
 135 449 167 444 167 408 c 0
 167 371 137 350 110 350 c 0
 81 350 46 368 46 416 c 0
 46 498 140 570 262 570 c 0
 383 570 488 520 488 410 c 0
 488 330 421 259 257 210 c 0
 211 196 170 171 139 137 c 0
 126 123 114 107 105 91 c 0
 101 85 100 81 100 79 c 0
 100 77 101 76 103 76 c 0
 113 76 146 97 180 97 c 0
 280 97 290 63 366 63 c 0
 409 63 435 78 446 108 c 0
 453 126 443 157 471 157 c 0
 495 157 501 150 501 137 c 0
 501 130 499 121 498 110 c 0
EndSplineSet
EndChar

StartChar: three
Encoding: 51 51 5
Width: 530
VWidth: 1155
Flags: HMW
LayerCount: 2
Fore
SplineSet
30 -1 m 0
 30 47 65 65 94 65 c 0
 121 65 151 44 151 7 c 0
 151 -29 119 -34 119 -57 c 0
 119 -84 162 -118 246 -118 c 0
 355 -118 394 -34 394 40 c 0
 394 106 372 189 249 207 c 0
 225 211 197 201 197 232 c 2
 197 244 l 2
 197 260 208 262 220 262 c 0
 224 262 227 262 231 262 c 0
 234 262 236 262 239 262 c 0
 367 274 374 343 374 401 c 0
 374 475 335 528 246 528 c 0
 182 528 149 495 149 468 c 0
 149 445 181 440 181 404 c 0
 181 367 151 346 124 346 c 0
 95 346 60 364 60 412 c 0
 60 494 124 570 266 570 c 0
 367 570 475 521 475 401 c 0
 475 339 461 287 393 256 c 0
 357 240 339 237 339 234 c 0
 339 231 359 229 397 210 c 4
 473 172 495 109 495 40 c 0
 495 -70 407 -160 256 -160 c 0
 104 -160 30 -83 30 -1 c 0
EndSplineSet
EndChar

StartChar: four
Encoding: 52 52 6
Width: 530
VWidth: 1155
Flags: HMW
LayerCount: 2
Fore
SplineSet
495 -118 m 1
 495 -147 491 -150 472 -150 c 0
 467 -150 461 -150 453 -150 c 2
 261 -150 l 2
 258 -150 255 -150 252 -150 c 0
 232 -150 230 -148 230 -122 c 1
 230 -98 239 -94 253 -94 c 0
 258 -94 264 -95 270 -95 c 1
 325 -95 325 -74 325 -10 c 2
 325 36 l 2
 325 65 324 65 295 65 c 2
 67 65 l 2
 60 65 54 64 49 64 c 0
 40 64 35 67 35 80 c 0
 35 112 42 123 53 144 c 0
 119 267 256 397 288 514 c 0
 296 543 284 560 321 560 c 2
 351 560 l 2
 376 560 383 553 383 541 c 0
 383 532 380 520 376 506 c 0
 344 380 207 279 131 172 c 0
 119 155 105 141 105 132 c 0
 105 124 115 120 143 120 c 2
 295 120 l 2
 323 120 325 123 325 143 c 0
 325 147 325 151 325 156 c 2
 325 228 l 2
 325 266 337 264 353 282 c 0
 366 297 377 317 387 346 c 0
 391 359 389 370 409 370 c 0
 419 370 421 365 421 358 c 0
 421 353 420 348 420 342 c 2
 420 164 l 2
 420 156 420 150 420 145 c 0
 420 124 423 120 455 120 c 0
 467 120 478 121 486 121 c 0
 502 121 510 117 510 90 c 0
 510 67 499 63 482 63 c 0
 471 63 457 65 443 65 c 0
 422 65 420 62 420 48 c 0
 420 45 420 41 420 36 c 2
 420 -2 l 2
 420 -52 421 -95 458 -95 c 0
 464 -95 469 -94 474 -94 c 0
 486 -94 495 -97 495 -118 c 1
EndSplineSet
EndChar

StartChar: five
Encoding: 53 53 7
Width: 530
VWidth: 1155
Flags: HMW
LayerCount: 2
Fore
SplineSet
40 -11 m 0
 40 37 75 55 104 55 c 0
 131 55 161 34 161 -3 c 0
 161 -39 129 -44 129 -67 c 0
 129 -94 172 -118 226 -118 c 0
 325 -118 394 -44 394 60 c 0
 394 194 335 261 246 261 c 0
 197 261 167 253 140 226 c 0
 124 211 124 197 88 197 c 0
 68 197 62 204 62 215 c 0
 62 225 67 239 68 253 c 2
 100 527 l 2
 104 565 105 565 148 565 c 2
 247 565 l 0
 300 565 332 561 355 561 c 0
 376 561 389 564 402 576 c 0
 413 586 414 597 440 597 c 1
 445 598 448 599 451 599 c 0
 460 599 463 594 463 588 c 0
 463 581 460 573 458 565 c 0
 440 483 422 475 185 475 c 0
 178 475 173 475 168 475 c 0
 149 475 144 473 141 447 c 2
 126 319 l 2
 124 305 123 295 123 289 c 0
 123 283 124 280 127 280 c 0
 132 280 141 287 158 294 c 0
 184 305 216 310 258 310 c 0
 419 310 495 220 495 80 c 0
 495 -70 377 -160 236 -160 c 0
 114 -160 40 -93 40 -11 c 0
EndSplineSet
EndChar

StartChar: six
Encoding: 54 54 8
Width: 530
VWidth: 1155
Flags: HMW
LayerCount: 2
Fore
SplineSet
400 230 m 0
 400 344 353 411 274 411 c 0
 210 411 159 368 139 312 c 0
 133 294 130 274 130 254 c 0
 130 239 131 224 134 208 c 0
 148 120 187 35 270 35 c 4
 359 35 400 146 400 230 c 0
353 651 m 0
 353 664 338 678 299 678 c 0
 196 678 150 573 135 446 c 0
 132 423 130 408 130 400 c 0
 130 394 131 392 133 392 c 0
 137 392 148 403 166 418 c 0
 199 444 242 460 296 460 c 0
 407 460 500 380 500 230 c 0
 500 110 410 -10 269 -10 c 0
 108 -10 30 110 30 350 c 0
 30 550 133 720 294 720 c 0
 376 720 450 683 450 601 c 0
 450 553 415 535 386 535 c 0
 359 535 329 556 329 593 c 0
 329 629 353 638 353 651 c 0
EndSplineSet
EndChar

StartChar: seven
Encoding: 55 55 9
Width: 540
VWidth: 1155
Flags: HMW
LayerCount: 2
Fore
SplineSet
38 444 m 0
 49 548 97 580 175 580 c 0
 272 580 307 520 390 520 c 0
 414 520 430 527 440 539 c 0
 455 556 447 570 482 570 c 0
 502 570 509 569 509 560 c 0
 509 556 507 549 504 540 c 0
 482 465 392 339 333 218 c 0
 287 124 279 86 279 42 c 0
 279 -31 312 -46 312 -92 c 0
 312 -129 292 -160 248 -160 c 0
 209 -160 182 -123 182 -54 c 0
 182 35 208 127 274 231 c 0
 311 289 354 357 389 418 c 4
 396 431 411 447 411 454 c 0
 411 456 409 458 405 458 c 0
 403 458 400 458 397 457 c 0
 385 454 371 453 355 453 c 0
 255 453 245 487 169 487 c 0
 130 487 106 475 93 450 c 0
 82 428 95 393 58 393 c 0
 39 393 34 401 34 413 c 0
 34 422 37 433 38 444 c 0
EndSplineSet
EndChar

StartChar: eight
Encoding: 56 56 10
Width: 530
VWidth: 1155
Flags: HMW
LayerCount: 2
Fore
SplineSet
160 530 m 0
 160 456 196 385 265 385 c 0
 334 385 370 456 370 530 c 0
 370 604 334 675 265 675 c 0
 196 675 160 604 160 530 c 0
60 530 m 0
 60 640 144 720 265 720 c 0
 386 720 470 640 470 530 c 0
 470 466 443 415 394 387 c 4
 376 376 366 372 366 367 c 0
 366 362 377 358 398 348 c 0
 458 320 490 265 490 190 c 0
 490 70 406 -10 265 -10 c 0
 124 -10 40 70 40 190 c 0
 40 262 71 314 125 344 c 0
 148 356 169 361 169 367 c 0
 169 370 164 374 153 378 c 4
 93 400 60 459 60 530 c 0
140 190 m 0
 140 106 176 35 265 35 c 0
 354 35 390 106 390 190 c 0
 390 274 354 345 265 345 c 0
 176 345 140 274 140 190 c 0
EndSplineSet
EndChar

StartChar: nine
Encoding: 57 57 11
Width: 530
VWidth: 1155
Flags: HMW
LayerCount: 2
Fore
SplineSet
130 330 m 0
 130 216 177 149 256 149 c 0
 339 149 400 220 400 300 c 0
 400 404 350 525 251 525 c 0
 162 525 130 414 130 330 c 0
177 -91 m 0
 177 -104 192 -118 231 -118 c 0
 333 -118 380 -15 395 110 c 0
 398 136 401 152 401 161 c 0
 401 166 400 168 398 168 c 0
 394 168 385 160 370 147 c 4
 337 118 291 100 234 100 c 0
 123 100 30 180 30 330 c 0
 30 450 120 570 261 570 c 0
 422 570 500 450 500 210 c 0
 500 10 397 -160 236 -160 c 0
 154 -160 80 -123 80 -41 c 0
 80 7 115 25 144 25 c 0
 171 25 201 4 201 -33 c 0
 201 -69 177 -78 177 -91 c 0
EndSplineSet
EndChar

StartChar: A
Encoding: 65 65 12
Width: 920
Flags: HMW
LayerCount: 2
Fore
SplineSet
512 722 m 2
 767 82 l 2
 777 56 779 55 816 55 c 2
 868 55 l 2
 888 55 890 52 890 39 c 0
 890 35 890 30 890 24 c 0
 890 3 882 -1 868 -1 c 0
 860 -1 849 0 838 0 c 2
 606 0 l 2
 597 0 590 0 584 -0 c 0
 565 0 560 3 560 34 c 0
 560 53 566 56 578 56 c 0
 584 56 593 55 602 55 c 0
 613 55 621 55 629 55 c 0
 652 55 662 56 662 67 c 0
 662 73 658 83 653 98 c 2
 620 186 l 2
 612 208 614 220 582 220 c 2
 310 220 l 2
 266 220 262 219 249 188 c 2
 208 92 l 2
 202 78 198 69 198 64 c 0
 198 55 209 55 242 55 c 2
 286 55 l 6
 303 55 310 52 310 36 c 0
 310 29 310 23 310 18 c 0
 310 4 307 0 284 0 c 2
 52 0 l 2
 32 0 30 2 30 15 c 0
 30 19 30 24 30 30 c 0
 30 52 33 55 47 55 c 0
 51 55 57 55 64 55 c 0
 71 55 78 55 84 55 c 0
 119 55 129 57 143 88 c 2
 417 722 l 2
 428 748 426 765 466 765 c 0
 505 765 502 748 512 722 c 2
413 572 m 2
 309 330 l 2
 300 309 293 296 293 288 c 0
 293 277 306 275 348 275 c 2
 538 275 l 2
 550 275 560 274 567 274 c 0
 576 274 582 276 582 283 c 0
 582 287 581 291 578 298 c 2
 464 602 l 2
 454 627 447 637 442 637 c 0
 432 637 427 604 413 572 c 2
EndSplineSet
EndChar

StartChar: B
Encoding: 66 66 13
Width: 770
Flags: HMW
LayerCount: 2
Fore
SplineSet
285 415 m 2
 430 415 l 2
 506 415 580 456 580 555 c 0
 580 654 506 695 430 695 c 2
 287 695 l 2
 282 695 278 695 274 695 c 0
 248 695 245 693 245 658 c 2
 245 472 l 2
 245 461 244 451 244 444 c 0
 244 422 249 415 285 415 c 2
440 55 m 2
 526 55 600 111 600 210 c 0
 600 309 526 360 440 360 c 2
 309 360 l 2
 295 360 283 361 274 361 c 0
 253 361 245 356 245 320 c 2
 245 108 l 2
 245 59 250 55 283 55 c 0
 291 55 300 55 311 55 c 2
 440 55 l 2
450 0 m 0
 85 0 l 2
 49 0 40 11 40 32 c 4
 40 53 68 55 94 55 c 0
 100 55 106 55 111 55 c 4
 133 55 150 70 150 116 c 2
 150 648 l 2
 150 692 145 695 114 695 c 0
 108 695 101 695 93 695 c 0
 81 695 71 694 63 694 c 0
 47 694 40 698 40 726 c 0
 40 748 58 753 80 753 c 0
 97 753 116 750 131 750 c 2
 430 750 l 0
 581 750 680 685 680 555 c 0
 680 475 647 428 583 403 c 0
 559 394 550 389 550 386 c 0
 550 380 584 380 615 366 c 0
 676 337 710 287 710 210 c 0
 710 60 611 0 450 0 c 0
EndSplineSet
EndChar

StartChar: C
Encoding: 67 67 14
Width: 785
Flags: HMW
LayerCount: 2
Fore
SplineSet
752 263 m 4
 730 106 610 -10 420 -10 c 0
 207 -10 55 152 55 375 c 0
 55 598 232 760 435 760 c 0
 524 760 595 725 645 678 c 0
 657 667 664 661 668 661 c 0
 674 661 676 673 684 699 c 0
 692 726 687 755 725 755 c 0
 745 755 745 755 745 735 c 2
 745 529 l 2
 745 496 744 495 714 495 c 0
 712 495 711 495 709 495 c 0
 679 495 687 524 678 547 c 0
 646 630 559 702 440 702 c 0
 266 702 170 557 170 375 c 0
 170 193 256 49 430 49 c 0
 581 49 674 153 696 265 c 0
 701 293 698 295 731 295 c 0
 750 295 755 292 755 283 c 0
 755 278 753 272 752 263 c 4
EndSplineSet
EndChar

StartChar: D
Encoding: 68 68 15
Width: 825
Flags: HMW
LayerCount: 2
Fore
SplineSet
287 55 m 2
 410 55 l 2
 594 55 655 193 655 375 c 0
 655 557 584 695 410 695 c 2
 283 695 l 2
 279 695 276 695 273 695 c 0
 247 695 245 693 245 661 c 2
 245 91 l 2
 245 57 248 55 274 55 c 0
 278 55 282 55 287 55 c 2
410 0 m 2
 83 0 l 2
 73 0 65 -1 59 -1 c 0
 47 -1 40 3 40 23 c 0
 40 26 40 29 40 32 c 0
 40 53 42 55 69 55 c 2
 115 55 l 2
 147 55 150 59 150 81 c 0
 150 86 150 93 150 101 c 2
 150 675 l 2
 150 693 146 695 135 695 c 0
 131 695 126 695 119 695 c 2
 61 695 l 2
 42 695 39 701 39 712 c 0
 39 718 40 726 40 735 c 0
 40 748 44 751 52 751 c 0
 56 751 61 750 67 750 c 2
 410 750 l 2
 633 750 770 588 770 375 c 0
 770 162 623 0 410 0 c 2
EndSplineSet
EndChar

StartChar: E
Encoding: 69 69 16
Width: 725
Flags: HMW
LayerCount: 2
Fore
SplineSet
95 695 m 0
 83 695 72 694 64 694 c 0
 48 694 40 698 40 725 c 0
 40 747 47 751 60 751 c 0
 67 751 76 750 87 750 c 2
 631 750 l 2
 680 750 685 743 685 711 c 0
 685 702 685 691 685 677 c 2
 685 563 l 2
 685 553 686 544 686 536 c 0
 686 523 683 515 663 515 c 0
 628 515 636 527 634 557 c 0
 627 661 589 695 485 695 c 2
 291 695 l 2
 246 695 245 695 245 653 c 0
 245 651 245 649 245 647 c 2
 245 455 l 2
 245 453 245 452 245 450 c 0
 245 409 246 408 291 408 c 2
 330 408 l 2
 405 408 440 444 448 497 c 0
 451 519 447 523 473 523 c 0
 493 523 497 512 497 497 c 0
 497 486 495 473 495 461 c 2
 495 283 l 2
 495 276 495 271 495 266 c 0
 495 253 493 248 471 248 c 0
 439 248 448 288 437 311 c 0
 420 345 387 368 330 368 c 2
 275 368 l 2
 245 368 245 367 245 337 c 2
 245 95 l 2
 245 58 249 55 275 55 c 0
 281 55 287 55 295 55 c 2
 475 55 l 2
 595 55 644 91 644 215 c 0
 644 222 644 229 644 234 c 0
 644 247 647 255 667 255 c 0
 694 255 695 254 695 230 c 0
 695 228 695 227 695 225 c 2
 695 45 l 2
 695 40 695 35 695 31 c 0
 695 2 693 0 655 0 c 2
 81 0 l 2
 74 0 67 0 62 -0 c 0
 44 0 40 3 40 31 c 0
 40 53 52 57 69 57 c 0
 81 57 95 55 109 55 c 0
 146 55 150 60 150 85 c 0
 150 91 150 100 150 109 c 6
 150 639 l 2
 150 641 150 642 150 644 c 0
 150 694 149 695 95 695 c 0
EndSplineSet
EndChar

StartChar: F
Encoding: 70 70 17
Width: 715
Flags: HMW
LayerCount: 2
Fore
SplineSet
123 695 m 2
 67 695 l 2
 42 695 40 698 40 715 c 0
 40 719 40 725 40 731 c 0
 40 748 43 750 53 750 c 0
 57 750 61 750 67 750 c 2
 631 750 l 2
 641 750 649 751 656 751 c 0
 668 751 675 748 675 729 c 2
 675 571 l 2
 675 558 676 548 676 539 c 0
 676 524 672 515 647 515 c 0
 626 515 624 523 624 536 c 0
 624 540 624 544 624 548 c 0
 624 551 624 554 624 557 c 0
 617 661 579 695 475 695 c 2
 277 695 l 2
 275 695 274 695 272 695 c 0
 246 695 245 694 245 665 c 2
 245 441 l 2
 245 432 244 424 244 418 c 0
 244 404 248 398 271 398 c 2
 340 398 l 2
 408 398 443 421 455 463 c 0
 462 488 451 503 485 503 c 0
 503 503 506 495 506 482 c 0
 506 474 505 465 505 455 c 2
 505 295 l 2
 505 285 507 273 507 263 c 0
 507 249 503 238 487 238 c 4
 447 238 462 263 451 290 c 0
 436 326 402 348 340 348 c 2
 271 348 l 2
 247 348 245 346 245 329 c 0
 245 326 245 322 245 317 c 2
 245 103 l 2
 245 55 245 55 293 55 c 2
 329 55 l 2
 337 55 343 55 348 55 c 0
 361 55 365 52 365 31 c 0
 365 3 361 0 344 -0 c 0
 339 0 331 0 323 0 c 2
 95 0 l 6
 53 0 40 1 40 25 c 0
 40 44 42 55 81 55 c 4
 88 55 97 54 106 54 c 0
 128 54 150 60 150 99 c 2
 150 643 l 2
 150 655 151 664 151 672 c 0
 151 687 147 695 123 695 c 2
EndSplineSet
EndChar

StartChar: G
Encoding: 71 71 18
Width: 875
Flags: HMW
LayerCount: 2
Fore
SplineSet
553 370 m 2
 831 370 l 2
 853 370 855 365 855 352 c 0
 855 347 855 342 855 335 c 0
 855 328 855 323 855 319 c 0
 855 309 853 305 835 305 c 2
 791 305 l 2
 786 305 782 305 778 305 c 0
 758 305 755 303 755 275 c 2
 755 241 l 2
 755 205 752 188 739 159 c 0
 702 77 600 -10 420 -10 c 0
 212 -10 55 152 55 375 c 0
 55 598 232 760 435 760 c 0
 533 760 608 727 659 676 c 0
 664 671 669 666 673 661 c 1
 686 703 l 2
 693 726 689 750 721 750 c 0
 742 750 746 742 746 728 c 0
 746 720 745 710 745 699 c 2
 745 541 l 2
 745 531 745 524 745 518 c 0
 745 501 742 495 713 495 c 0
 683 495 690 505 685 529 c 0
 667 620 606 704 442 704 c 0
 278 704 170 557 170 375 c 0
 170 193 256 45 425 45 c 0
 527 45 593 90 627 139 c 0
 647 167 650 185 650 231 c 2
 650 267 l 2
 650 275 650 282 650 287 c 0
 650 300 647 305 625 305 c 2
 549 305 l 2
 527 305 525 308 525 323 c 0
 525 326 525 330 525 335 c 0
 525 341 525 346 525 350 c 0
 525 367 527 370 553 370 c 2
EndSplineSet
EndChar

StartChar: H
Encoding: 72 72 19
Width: 890
Flags: HMW
LayerCount: 2
Fore
SplineSet
245 653 m 2
 245 447 l 2
 245 415 245 415 277 415 c 2
 591 415 l 2
 593 415 595 415 597 415 c 0
 644 415 645 416 645 467 c 2
 645 669 l 2
 645 693 643 695 624 695 c 0
 621 695 618 695 615 695 c 2
 565 695 l 2
 527 695 525 697 525 729 c 0
 525 732 525 735 525 739 c 0
 525 749 533 751 544 751 c 0
 552 751 562 750 569 750 c 2
 783 750 l 2
 796 750 810 752 821 752 c 0
 838 752 850 748 850 725 c 0
 850 698 839 693 822 693 c 0
 812 693 799 695 785 695 c 0
 744 695 740 690 740 661 c 0
 740 654 740 647 740 637 c 2
 740 101 l 2
 740 91 739 83 739 77 c 0
 739 60 743 55 771 55 c 6
 793 55 l 2
 805 55 816 57 825 57 c 0
 840 57 850 52 850 31 c 0
 850 29 850 28 850 26 c 0
 850 1 849 0 821 0 c 2
 579 0 l 2
 569 0 558 -2 548 -2 c 0
 535 -2 525 1 525 17 c 0
 525 25 524 32 524 38 c 0
 524 50 527 55 547 55 c 2
 611 55 l 2
 643 55 645 57 645 83 c 0
 645 86 645 89 645 93 c 2
 645 337 l 2
 645 359 646 360 623 360 c 2
 309 360 l 2
 252 360 244 349 244 314 c 0
 244 302 245 286 245 267 c 2
 245 109 l 2
 245 97 244 88 244 80 c 0
 244 62 249 55 279 55 c 2
 341 55 l 2
 344 55 347 55 349 55 c 0
 362 55 365 54 365 35 c 0
 365 29 365 24 365 20 c 0
 365 3 363 0 337 0 c 2
 69 0 l 2
 63 0 57 0 53 -0 c 0
 43 0 40 2 40 19 c 0
 40 53 43 55 68 55 c 0
 72 55 76 55 81 55 c 0
 95 55 106 54 115 54 c 0
 142 54 150 60 150 105 c 2
 150 679 l 2
 150 694 137 697 121 697 c 0
 108 697 94 695 83 695 c 0
 74 695 66 694 60 694 c 0
 45 694 40 698 40 723 c 0
 40 748 44 750 60 750 c 0
 64 750 69 750 75 750 c 2
 297 750 l 2
 312 750 325 752 336 752 c 0
 354 752 365 747 365 719 c 0
 365 697 351 692 333 692 c 0
 320 692 303 695 289 695 c 0
 287 695 286 695 284 695 c 0
 246 695 245 694 245 653 c 2
EndSplineSet
EndChar

StartChar: I
Encoding: 73 73 20
Width: 405
Flags: HMW
LayerCount: 2
Fore
SplineSet
245 675 m 6
 245 127 l 2
 245 111 243 97 243 86 c 0
 243 66 249 55 280 55 c 2
 328 55 l 2
 332 55 335 55 338 55 c 0
 364 55 365 53 365 21 c 0
 365 2 357 -1 345 -1 c 0
 338 -1 328 0 318 0 c 2
 128 0 l 2
 116 0 96 -2 79 -2 c 0
 58 -2 40 1 40 17 c 0
 40 26 39 32 39 38 c 0
 39 49 42 55 60 55 c 2
 112 55 l 2
 150 55 150 55 150 93 c 2
 150 655 l 2
 150 691 138 697 116 697 c 0
 104 697 90 695 72 695 c 0
 70 695 69 695 67 695 c 0
 41 695 40 696 40 725 c 0
 40 747 47 751 60 751 c 0
 66 751 74 750 84 750 c 2
 330 750 l 2
 333 750 336 750 339 750 c 0
 362 750 365 748 365 719 c 0
 365 716 365 712 365 710 c 0
 365 696 364 695 344 695 c 2
 298 695 l 2
 287 695 277 697 268 697 c 0
 255 697 245 693 245 675 c 6
EndSplineSet
EndChar

StartChar: J
Encoding: 74 74 21
Width: 596
Flags: HMW
LayerCount: 2
Fore
SplineSet
446 669 m 2
 446 270 l 2
 446 110 367 -10 206 -10 c 0
 69 -10 10 75 10 145 c 0
 10 207 49 240 89 240 c 0
 124 240 153 217 153 181 c 0
 153 116 109 132 109 90 c 0
 109 73 124 45 206 45 c 0
 297 45 351 100 351 240 c 2
 351 656 l 2
 351 691 323 696 291 696 c 0
 276 696 260 695 246 695 c 0
 239 695 234 695 229 695 c 0
 216 695 211 697 211 719 c 0
 211 747 218 751 235 751 c 0
 243 751 254 750 266 750 c 2
 534 750 l 2
 562 750 567 747 567 728 c 0
 567 723 566 716 566 709 c 0
 565 696 549 694 529 694 c 0
 516 694 502 695 490 695 c 0
 470 695 446 695 446 669 c 2
EndSplineSet
EndChar

StartChar: K
Encoding: 75 75 22
Width: 870
Flags: HMW
LayerCount: 2
Fore
SplineSet
840 0 m 2
 572 0 l 2
 548 0 545 4 545 19 c 0
 545 24 545 30 545 37 c 0
 545 54 547 55 558 55 c 0
 560 55 563 55 566 55 c 2
 620 55 l 2
 635 55 640 58 640 63 c 0
 640 72 621 86 613 97 c 2
 418 355 l 2
 406 371 401 380 395 380 c 0
 390 380 384 374 373 363 c 2
 295 283 l 2
 270 258 245 238 245 187 c 6
 245 81 l 2
 245 58 253 54 267 54 c 0
 274 54 283 55 294 55 c 2
 340 55 l 2
 345 55 348 55 351 55 c 0
 363 55 365 53 365 35 c 0
 365 2 362 0 337 -0 c 0
 333 0 329 0 324 0 c 2
 90 0 l 2
 80 0 70 -2 61 -2 c 0
 49 -2 40 2 40 19 c 0
 40 54 41 55 73 55 c 0
 75 55 76 55 78 55 c 0
 93 55 105 54 115 54 c 0
 141 54 150 60 150 103 c 2
 150 643 l 2
 150 655 151 664 151 672 c 0
 151 687 147 695 122 695 c 2
 82 695 l 2
 74 695 67 695 61 695 c 0
 44 695 40 698 40 725 c 0
 40 747 49 752 64 752 c 0
 73 752 84 750 96 750 c 2
 328 750 l 2
 334 750 340 750 344 750 c 0
 362 750 365 748 365 721 c 0
 365 697 363 695 346 695 c 0
 343 695 339 695 334 695 c 2
 286 695 l 2
 247 695 245 693 245 663 c 0
 245 659 245 654 245 649 c 2
 245 369 l 6
 245 335 249 323 256 323 c 0
 266 323 283 347 302 367 c 2
 579 653 l 2
 590 665 608 679 608 687 c 0
 608 692 602 695 586 695 c 2
 544 695 l 2
 537 695 532 695 527 695 c 0
 514 695 510 697 510 719 c 0
 510 750 511 750 542 750 c 2
 766 750 l 2
 776 750 784 751 790 751 c 0
 803 751 810 747 810 725 c 0
 810 697 807 695 785 695 c 0
 782 695 779 695 776 695 c 2
 720 695 l 2
 688 695 686 686 671 671 c 2
 480 475 l 2
 468 463 464 455 464 447 c 0
 464 434 477 424 493 403 c 2
 741 85 l 2
 763 56 775 55 828 55 c 0
 838 55 846 56 853 56 c 0
 869 56 875 52 875 25 c 0
 875 3 871 0 857 -0 c 0
 852 0 847 0 840 0 c 2
EndSplineSet
EndChar

StartChar: L
Encoding: 76 76 23
Width: 730
Flags: HMW
LayerCount: 2
Fore
SplineSet
123 695 m 6
 71 695 l 2
 65 695 60 695 56 695 c 0
 43 695 40 697 40 717 c 0
 40 748 42 750 67 750 c 0
 70 750 74 750 77 750 c 2
 313 750 l 2
 321 750 329 750 334 750 c 0
 351 750 355 747 355 719 c 0
 355 697 342 692 324 692 c 0
 311 692 295 695 281 695 c 0
 279 695 278 695 276 695 c 0
 246 695 245 694 245 661 c 2
 245 95 l 2
 245 59 251 54 273 54 c 0
 280 54 290 55 301 55 c 2
 470 55 l 2
 590 55 630 103 638 207 c 0
 641 239 631 255 669 255 c 0
 688 255 692 247 692 234 c 0
 692 226 690 216 690 205 c 2
 690 53 l 2
 690 42 691 33 691 26 c 0
 691 6 686 0 653 0 c 2
 103 0 l 2
 95 0 81 -2 68 -2 c 0
 53 -2 40 1 40 11 c 0
 40 18 39 28 39 36 c 0
 39 47 41 55 51 55 c 2
 113 55 l 6
 146 55 151 79 151 111 c 0
 151 123 150 137 150 151 c 2
 150 665 l 2
 150 668 150 671 150 674 c 0
 150 693 148 695 123 695 c 6
EndSplineSet
EndChar

StartChar: M
Encoding: 77 77 24
Width: 1035
Flags: HMW
LayerCount: 2
Fore
SplineSet
96 695 m 0
 67 695 65 697 65 718 c 0
 65 722 65 726 65 731 c 0
 65 748 70 751 81 751 c 0
 86 751 93 750 100 750 c 2
 266 750 l 2
 318 750 314 736 326 699 c 2
 500 171 l 2
 508 146 511 128 516 128 c 0
 519 128 524 137 531 159 c 2
 710 701 l 2
 724 746 739 750 782 750 c 0
 793 750 805 750 820 750 c 2
 918 750 l 2
 929 750 939 751 946 751 c 0
 963 751 970 747 970 719 c 0
 970 696 969 695 949 695 c 0
 947 695 946 695 944 695 c 2
 904 695 l 2
 869 695 863 693 863 672 c 0
 863 666 864 658 864 649 c 2
 883 189 l 2
 883 183 883 178 883 172 c 0
 883 154 882 137 882 123 c 0
 882 79 891 55 960 55 c 0
 969 55 976 56 982 56 c 0
 995 56 1000 52 1000 31 c 0
 1000 1 998 0 971 -0 c 0
 969 0 968 0 966 0 c 2
 728 0 l 2
 716 0 706 -1 698 -1 c 0
 683 -1 675 3 675 29 c 0
 675 52 681 56 695 56 c 0
 702 56 710 55 720 55 c 0
 782 55 791 57 791 98 c 0
 791 107 790 118 790 131 c 2
 777 637 l 2
 777 656 774 663 770 663 c 0
 766 663 760 654 756 641 c 2
 554 33 l 2
 544 4 549 -10 507 -10 c 0
 469 -10 473 0 464 27 c 6
 253 659 l 2
 248 674 244 681 241 681 c 0
 238 681 236 673 235 656 c 2
 215 135 l 2
 214 115 211 98 211 86 c 0
 211 65 219 55 258 55 c 0
 272 55 287 57 299 57 c 0
 317 57 330 53 330 31 c 0
 330 3 325 0 307 -0 c 0
 301 0 295 0 286 0 c 2
 80 0 l 2
 71 0 62 -2 54 -2 c 0
 43 -2 35 2 35 17 c 0
 35 54 37 55 71 55 c 0
 73 55 74 55 76 55 c 0
 91 55 104 54 114 54 c 0
 139 54 149 60 150 99 c 2
 175 643 l 2
 175 647 175 651 175 655 c 0
 175 691 165 696 138 696 c 0
 127 696 113 695 96 695 c 0
EndSplineSet
EndChar

StartChar: N
Encoding: 78 78 25
Width: 875
Flags: HMW
LayerCount: 2
Fore
SplineSet
104 695 m 4
 90 695 78 693 68 693 c 0
 50 693 40 698 40 726 c 0
 40 747 47 751 60 751 c 0
 67 751 74 750 84 750 c 2
 200 750 l 2
 258 750 261 730 285 698 c 2
 645 226 l 2
 660 207 671 193 677 193 c 0
 683 193 685 204 685 234 c 6
 685 658 l 2
 685 666 686 674 686 679 c 0
 686 690 683 695 664 695 c 2
 612 695 l 2
 606 695 600 695 596 695 c 0
 578 695 575 697 575 724 c 0
 575 747 579 750 594 750 c 0
 599 750 605 750 612 750 c 2
 802 750 l 2
 811 750 822 752 832 752 c 0
 845 752 855 749 855 736 c 0
 855 700 846 694 824 694 c 0
 814 694 801 695 786 695 c 0
 784 695 783 695 781 695 c 0
 751 695 750 694 750 660 c 2
 750 48 l 2
 750 38 752 26 752 15 c 0
 752 1 749 -10 734 -10 c 0
 708 -10 706 2 695 16 c 2
 255 588 l 2
 238 611 226 634 219 634 c 0
 213 634 210 619 210 578 c 2
 210 82 l 2
 210 58 215 55 230 55 c 0
 235 55 241 55 248 55 c 2
 282 55 l 2
 291 55 297 55 303 55 c 0
 320 55 325 52 325 24 c 0
 325 2 323 0 308 -0 c 0
 305 0 301 0 296 0 c 2
 82 0 l 2
 80 0 79 0 77 -0 c 0
 41 0 40 1 40 40 c 0
 40 53 43 56 51 56 c 0
 55 56 60 55 66 55 c 2
 108 55 l 2
 141 55 146 61 146 81 c 0
 146 88 145 97 145 108 c 2
 145 640 l 2
 145 650 145 659 145 666 c 0
 145 690 141 695 104 695 c 4
EndSplineSet
EndChar

StartChar: O
Encoding: 79 79 26
Width: 830
Flags: HMW
LayerCount: 2
Fore
SplineSet
170 375 m 0
 170 193 241 40 415 40 c 0
 599 40 660 193 660 375 c 0
 660 557 589 710 415 710 c 0
 241 710 170 557 170 375 c 0
55 375 m 0
 55 588 192 760 415 760 c 0
 638 760 775 588 775 375 c 0
 775 162 628 -10 415 -10 c 0
 192 -10 55 162 55 375 c 0
EndSplineSet
EndChar

StartChar: P
Encoding: 80 80 27
Width: 695
Flags: HMW
LayerCount: 2
Fore
SplineSet
274 385 m 6
 395 385 l 2
 491 385 545 451 545 540 c 0
 545 629 491 695 395 695 c 2
 280 695 l 2
 247 695 245 692 245 668 c 0
 245 664 245 660 245 655 c 2
 245 407 l 2
 245 387 248 385 262 385 c 0
 265 385 269 385 274 385 c 6
118 695 m 6
 66 695 l 2
 61 695 56 695 53 695 c 0
 43 695 40 697 40 713 c 2
 40 729 l 2
 40 749 41 750 55 750 c 0
 57 750 61 750 64 750 c 2
 395 750 l 2
 576 750 655 670 655 540 c 0
 655 410 576 330 395 330 c 2
 292 330 l 2
 282 330 272 331 265 331 c 0
 253 331 245 328 245 309 c 2
 245 83 l 2
 245 58 250 55 266 55 c 0
 271 55 277 55 284 55 c 2
 320 55 l 2
 327 55 334 56 340 56 c 0
 348 56 355 54 355 43 c 0
 355 37 355 31 355 26 c 0
 355 3 352 0 320 0 c 2
 72 0 l 2
 69 0 66 0 63 -0 c 0
 42 0 40 2 40 29 c 0
 40 52 44 55 58 55 c 0
 63 55 69 55 76 55 c 2
 118 55 l 2
 147 55 150 60 150 78 c 0
 150 84 150 90 150 99 c 2
 150 679 l 2
 150 693 145 696 136 696 c 0
 131 696 125 695 118 695 c 6
EndSplineSet
EndChar

StartChar: Q
Encoding: 81 81 28
Width: 830
Flags: HMW
LayerCount: 2
Fore
SplineSet
594 121 m 0
 642 183 660 275 660 375 c 0
 660 557 589 710 415 710 c 0
 241 710 170 557 170 375 c 0
 170 319 177 265 191 218 c 0
 196 203 200 187 208 174 c 0
 215 161 219 155 221 155 c 0
 225 155 226 175 238 210 c 0
 254 258 293 303 362 303 c 0
 454 303 517 210 556 118 c 4
 563 101 568 95 572 95 c 0
 578 95 583 107 594 121 c 0
334 53 m 0
 358 45 385 40 415 40 c 0
 439 40 461 44 482 48 c 4
 502 52 508 56 508 61 c 0
 508 67 501 75 495 88 c 0
 468 154 434 210 364 210 c 0
 311 210 280 167 280 124 c 0
 280 119 280 113 281 108 c 0
 287 77 305 63 334 53 c 0
55 375 m 0
 55 588 192 760 415 760 c 0
 638 760 775 588 775 375 c 0
 775 250 725 138 639 68 c 0
 618 51 603 46 603 33 c 0
 603 26 607 17 616 4 c 0
 633 -21 649 -37 668 -37 c 0
 712 -37 738 -5 749 34 c 0
 757 64 744 82 782 82 c 0
 799 82 803 73 803 58 c 0
 803 53 803 47 802 40 c 0
 790 -54 742 -125 660 -125 c 0
 596 -125 557 -78 536 -15 c 4
 531 1 522 5 510 5 c 0
 489 5 457 -10 415 -10 c 0
 192 -10 55 162 55 375 c 0
EndSplineSet
EndChar

StartChar: R
Encoding: 82 82 29
Width: 775
Flags: HMW
LayerCount: 2
Fore
SplineSet
280 405 m 2
 435 405 l 2
 511 405 585 451 585 550 c 0
 585 649 511 695 435 695 c 2
 294 695 l 2
 283 695 274 696 267 696 c 0
 253 696 245 692 245 670 c 2
 245 462 l 2
 245 449 244 439 244 431 c 0
 244 413 249 405 280 405 c 2
786 50 m 0
 765 14 726 -10 675 -10 c 0
 442 -10 661 345 405 345 c 2
 284 345 l 2
 280 345 277 345 274 345 c 0
 247 345 245 343 245 310 c 2
 245 104 l 2
 245 94 245 86 245 80 c 0
 245 61 248 55 280 55 c 2
 322 55 l 2
 329 55 335 56 340 56 c 0
 350 56 355 53 355 36 c 0
 355 4 345 -1 326 -1 c 0
 316 -1 305 0 290 0 c 2
 64 0 l 2
 62 0 61 0 59 -0 c 0
 41 0 40 1 40 22 c 0
 40 52 45 55 64 55 c 0
 70 55 77 55 86 55 c 2
 108 55 l 2
 116 55 122 55 127 55 c 0
 146 55 150 58 150 88 c 2
 150 660 l 2
 150 666 150 671 150 675 c 0
 150 692 148 695 122 695 c 2
 64 695 l 2
 42 695 40 700 40 713 c 0
 40 718 40 723 40 730 c 0
 40 748 46 751 57 751 c 0
 63 751 71 750 80 750 c 2
 435 750 l 2
 616 750 685 660 685 550 c 0
 685 473 655 412 572 385 c 4
 544 376 531 373 531 369 c 0
 531 365 541 361 563 350 c 4
 706 275 593 57 701 57 c 0
 716 57 736 62 752 76 c 0
 764 87 765 97 773 97 c 0
 776 97 781 95 788 91 c 0
 795 87 798 82 798 77 c 0
 798 69 792 59 786 50 c 0
EndSplineSet
Substitution2: "'ss01' Style Set 1 lookup 2-1" uniFFFD
EndChar

StartChar: S
Encoding: 83 83 30
Width: 640
Flags: HMW
LayerCount: 2
Fore
SplineSet
516 570 m 4
 492 654 422 709 330 709 c 0
 214 709 170 654 170 585 c 0
 170 375 610 510 610 210 c 0
 610 70 511 -15 340 -15 c 0
 268 -15 203 13 158 50 c 0
 147 59 141 63 136 63 c 0
 127 63 126 48 116 22 c 0
 108 1 109 -5 78 -5 c 0
 52 -5 50 -1 50 16 c 0
 50 20 50 26 50 32 c 2
 50 198 l 2
 50 210 48 221 48 230 c 0
 48 245 53 255 76 255 c 0
 80 255 83 255 86 255 c 0
 103 255 103 254 106 232 c 0
 117 138 197 36 330 36 c 0
 466 36 520 116 520 185 c 0
 520 415 80 275 80 555 c 0
 80 695 189 760 320 760 c 0
 372 760 420 745 458 721 c 0
 473 712 484 693 494 693 c 0
 498 693 502 696 505 704 c 2
 518 734 l 2
 525 750 527 750 550 750 c 0
 557 750 562 751 567 751 c 0
 575 751 580 748 580 734 c 2
 580 556 l 2
 580 545 581 535 581 528 c 0
 581 512 577 505 550 505 c 0
 512 505 524 541 516 570 c 4
EndSplineSet
EndChar

StartChar: T
Encoding: 84 84 31
Width: 715
Flags: HMW
LayerCount: 2
Fore
SplineSet
490 0 m 6
 236 0 l 2
 225 0 214 -2 204 -2 c 0
 190 -2 180 2 180 20 c 2
 180 42 l 2
 180 54 190 56 202 56 c 0
 211 56 222 55 230 55 c 2
 282 55 l 2
 307 55 311 60 311 75 c 0
 311 81 310 89 310 98 c 2
 310 664 l 2
 310 696 299 702 279 702 c 0
 268 702 256 700 240 700 c 0
 133 700 90 671 76 584 c 0
 73 565 81 495 52 495 c 0
 24 495 19 504 19 521 c 0
 19 529 20 539 20 552 c 2
 20 726 l 2
 20 748 32 752 48 752 c 0
 59 752 73 750 86 750 c 2
 648 750 l 2
 658 750 666 750 672 750 c 0
 690 750 695 747 695 718 c 2
 695 546 l 2
 695 536 697 526 697 517 c 0
 697 504 693 495 676 495 c 0
 645 495 642 510 642 531 c 0
 642 536 643 541 643 546 c 0
 643 550 642 555 642 560 c 0
 632 666 591 700 475 700 c 2
 436 700 l 2
 430 700 426 700 422 700 c 0
 408 700 405 698 405 676 c 2
 405 118 l 2
 405 108 405 100 405 93 c 0
 405 60 409 55 456 55 c 2
 506 55 l 2
 509 55 512 55 515 55 c 0
 533 55 535 54 535 30 c 2
 535 12 l 2
 535 1 527 -2 516 -2 c 0
 508 -2 498 0 490 0 c 6
EndSplineSet
EndChar

StartChar: U
Encoding: 85 85 32
Width: 820
Flags: HMW
LayerCount: 2
Fore
SplineSet
594 695 m 2
 540 695 l 2
 534 695 527 694 522 694 c 0
 515 694 510 696 510 706 c 2
 510 734 l 2
 510 749 512 750 522 750 c 0
 524 750 527 750 530 750 c 2
 756 750 l 2
 766 750 776 751 784 751 c 0
 796 751 805 748 805 732 c 0
 805 697 802 695 776 695 c 0
 772 695 767 695 762 695 c 0
 750 695 736 697 724 697 c 0
 708 697 695 693 695 674 c 2
 695 300 l 2
 695 85 613 -15 415 -15 c 0
 202 -15 125 117 125 300 c 2
 125 644 l 2
 125 653 125 661 125 667 c 0
 125 690 122 695 86 695 c 2
 66 695 l 2
 57 695 46 693 37 693 c 0
 25 693 15 696 15 710 c 2
 15 738 l 2
 15 749 22 751 30 751 c 0
 36 751 43 750 50 750 c 2
 324 750 l 2
 338 750 340 742 340 734 c 0
 340 731 340 727 340 724 c 0
 340 704 342 697 278 695 c 4
 277 695 276 695 275 695 c 0
 267 695 257 696 249 696 c 0
 233 696 220 692 220 668 c 2
 220 310 l 2
 220 158 266 45 430 45 c 0
 584 45 635 118 635 300 c 2
 635 664 l 2
 635 692 631 695 613 695 c 0
 608 695 602 695 594 695 c 2
EndSplineSet
EndChar

StartChar: V
Encoding: 86 86 33
Width: 860
Flags: HMW
LayerCount: 2
Fore
SplineSet
491 181 m 2
 690 667 l 6
 693 675 695 681 695 685 c 0
 695 693 688 695 662 695 c 2
 606 695 l 2
 580 695 580 695 580 721 c 0
 580 747 590 752 607 752 c 0
 617 752 628 750 642 750 c 2
 832 750 l 2
 837 750 841 750 844 750 c 0
 858 750 860 748 860 727 c 0
 860 696 859 695 831 695 c 0
 829 695 828 695 826 695 c 2
 794 695 l 6
 748 695 748 672 721 607 c 6
 492 51 l 2
 479 20 481 -15 434 -15 c 0
 394 -15 389 34 378 61 c 2
 131 653 l 2
 118 683 121 695 76 695 c 2
 38 695 l 2
 36 695 35 695 33 695 c 0
 1 695 0 696 0 731 c 0
 0 748 7 751 18 751 c 0
 25 751 34 750 44 750 c 2
 302 750 l 2
 305 750 308 750 311 750 c 0
 326 750 330 749 330 729 c 0
 330 727 330 726 330 724 c 0
 330 707 328 695 292 695 c 0
 280 695 270 695 262 695 c 0
 240 695 231 694 231 682 c 0
 231 675 234 666 240 651 c 2
 443 147 l 2
 452 126 458 118 463 118 c 0
 473 118 479 151 491 181 c 2
EndSplineSet
EndChar

StartChar: W
Encoding: 87 87 34
Width: 1190
Flags: HMW
LayerCount: 2
Fore
SplineSet
453 244 m 6
 565 547 l 2
 575 575 581 593 581 614 c 0
 581 628 578 644 572 664 c 0
 563 694 559 695 524 695 c 0
 522 695 519 695 517 695 c 0
 509 695 502 695 496 695 c 0
 480 695 475 698 475 724 c 0
 475 747 480 750 494 750 c 0
 499 750 506 750 514 750 c 2
 694 750 l 2
 706 750 718 752 729 752 c 0
 744 752 755 748 755 730 c 0
 755 699 746 694 727 694 c 0
 717 694 706 695 691 695 c 0
 670 695 664 691 664 684 c 0
 664 677 670 666 674 652 c 2
 807 202 l 2
 818 165 824 149 830 149 c 0
 838 149 844 178 858 220 c 2
 998 637 l 2
 1003 652 1010 668 1010 679 c 0
 1010 689 1005 695 988 695 c 6
 922 695 l 2
 907 695 904 701 904 710 c 0
 904 715 905 722 905 730 c 0
 905 748 912 751 923 751 c 0
 929 751 937 750 946 750 c 2
 1138 750 l 2
 1148 750 1156 750 1162 750 c 0
 1180 750 1185 747 1185 718 c 0
 1185 697 1170 692 1152 692 c 0
 1138 692 1122 695 1108 695 c 0
 1065 695 1070 679 1060 649 c 2
 865 64 l 2
 855 34 856 -10 814 -10 c 0
 764 -10 768 31 757 67 c 2
 632 469 l 2
 623 499 619 512 614 512 c 0
 609 512 604 496 593 466 c 2
 447 64 l 2
 436 33 436 -10 391 -10 c 4
 341 -10 351 14 330 76 c 6
 126 661 l 2
 114 693 107 695 71 695 c 0
 67 695 63 695 58 695 c 0
 46 695 37 694 29 694 c 0
 12 694 5 699 5 727 c 0
 5 748 18 752 35 752 c 0
 47 752 63 750 76 750 c 2
 280 750 l 2
 292 750 303 751 311 751 c 0
 327 751 335 747 335 721 c 0
 335 698 325 693 309 693 c 0
 299 693 287 695 274 695 c 0
 264 695 255 695 248 695 c 0
 228 695 220 694 220 683 c 0
 220 677 223 668 227 655 c 2
 385 187 l 2
 397 152 405 139 412 139 c 0
 427 139 435 197 453 244 c 6
EndSplineSet
EndChar

StartChar: X
Encoding: 88 88 35
Width: 870
Flags: HMW
LayerCount: 2
Fore
SplineSet
101 750 m 6
 345 750 l 2
 374 750 375 748 375 722 c 0
 375 720 375 719 375 717 c 0
 375 697 364 693 349 693 c 0
 338 693 325 695 313 695 c 0
 282 695 271 693 271 687 c 0
 271 681 280 673 292 657 c 2
 431 475 l 2
 441 462 445 453 451 453 c 0
 455 453 460 457 467 467 c 2
 620 663 l 2
 630 675 639 684 639 689 c 0
 639 694 631 695 607 695 c 2
 549 695 l 2
 547 695 546 695 544 695 c 0
 526 695 525 696 525 717 c 2
 525 737 l 2
 525 749 533 751 544 751 c 0
 552 751 561 750 569 750 c 2
 785 750 l 6
 793 750 800 750 805 750 c 0
 820 750 825 747 825 721 c 0
 825 699 818 695 805 695 c 6
 749 695 l 2
 705 695 703 686 685 663 c 2
 518 445 l 2
 503 426 493 417 493 405 c 0
 493 398 497 389 507 377 c 2
 717 103 l 2
 737 77 740 55 789 55 c 2
 829 55 l 2
 835 55 840 55 844 55 c 0
 857 55 860 53 860 33 c 0
 860 26 861 20 861 15 c 0
 861 5 858 0 843 0 c 2
 581 0 l 2
 570 0 560 -1 552 -1 c 0
 538 -1 530 3 530 25 c 0
 530 32 529 37 529 42 c 0
 529 50 532 55 545 55 c 2
 583 55 l 2
 615 55 627 58 627 64 c 0
 627 70 615 81 602 97 c 2
 443 305 l 2
 432 320 427 331 420 331 c 0
 416 331 411 326 402 315 c 2
 213 75 l 2
 207 67 205 62 205 59 c 0
 205 55 210 53 218 53 c 0
 227 53 241 55 257 55 c 0
 268 55 279 56 287 56 c 0
 301 56 310 52 310 31 c 0
 310 28 310 25 310 22 c 0
 310 2 308 0 283 0 c 2
 51 0 l 2
 42 0 35 -1 29 -1 c 0
 15 -1 10 3 10 27 c 0
 10 53 12 55 30 55 c 0
 34 55 38 55 43 55 c 2
 107 55 l 2
 142 55 147 76 162 95 c 2
 370 357 l 2
 378 367 382 374 382 380 c 0
 382 388 375 394 364 409 c 2
 171 663 l 2
 152 688 149 695 103 695 c 0
 91 695 80 693 70 693 c 0
 55 693 45 697 45 717 c 0
 45 746 53 751 70 751 c 0
 78 751 89 750 101 750 c 6
EndSplineSet
EndChar

StartChar: Y
Encoding: 89 89 36
Width: 785
Flags: HMW
LayerCount: 2
Fore
SplineSet
28 750 m 6
 282 750 l 2
 290 750 300 751 309 751 c 0
 321 751 330 749 330 737 c 0
 330 727 331 719 331 713 c 0
 331 701 327 695 306 695 c 2
 242 695 l 2
 220 695 213 692 213 686 c 0
 213 678 228 665 237 651 c 2
 388 425 l 2
 402 404 409 394 415 394 c 0
 422 394 428 406 442 427 c 2
 604 675 l 2
 609 683 612 688 612 691 c 0
 612 695 607 695 597 695 c 0
 592 695 587 695 580 695 c 2
 524 695 l 2
 515 695 509 694 503 694 c 0
 491 694 485 698 485 719 c 0
 485 726 485 732 485 736 c 0
 485 746 487 750 504 750 c 2
 742 750 l 2
 751 750 759 751 765 751 c 0
 780 751 785 747 785 723 c 0
 785 721 785 720 785 718 c 0
 785 696 784 695 758 695 c 2
 716 695 l 2
 676 695 675 678 660 655 c 2
 469 361 l 2
 457 342 450 334 450 301 c 2
 450 99 l 2
 450 97 450 96 450 94 c 0
 450 56 451 55 492 55 c 2
 542 55 l 2
 567 55 570 51 570 35 c 0
 570 30 570 24 570 17 c 0
 570 2 563 -1 553 -1 c 0
 546 -1 539 0 530 0 c 2
 292 0 l 2
 282 0 274 0 268 -0 c 0
 250 0 245 3 245 33 c 0
 245 55 246 55 268 55 c 2
 314 55 l 2
 320 55 325 55 330 55 c 0
 351 55 355 58 355 89 c 2
 355 273 l 2
 355 315 344 325 328 349 c 2
 118 663 l 2
 103 685 103 695 64 695 c 2
 34 695 l 2
 32 695 31 695 29 695 c 0
 1 695 0 696 0 727 c 0
 0 748 2 750 16 750 c 0
 19 750 23 750 28 750 c 6
EndSplineSet
EndChar

StartChar: Z
Encoding: 90 90 37
Width: 735
Flags: HMW
LayerCount: 2
Fore
SplineSet
75 577 m 2
 75 729 l 2
 75 748 84 752 98 752 c 0
 107 752 117 750 128 750 c 2
 608 750 l 2
 618 750 628 751 635 751 c 0
 648 751 655 747 655 727 c 0
 655 683 639 674 620 651 c 2
 226 151 l 2
 197 115 166 89 166 74 c 0
 166 61 189 55 256 55 c 2
 475 55 l 2
 596 55 636 89 644 205 c 0
 644 208 644 211 644 214 c 0
 644 220 644 226 644 231 c 0
 644 246 647 255 672 255 c 1
 693 255 695 251 695 238 c 0
 695 233 695 228 695 221 c 2
 695 47 l 2
 695 3 690 0 659 -0 c 0
 653 0 646 0 638 0 c 2
 98 0 l 2
 89 0 80 -1 72 -1 c 0
 52 -1 35 3 35 26 c 4
 35 78 60 87 82 115 c 2
 516 665 l 2
 526 678 533 685 533 689 c 0
 533 694 523 695 496 695 c 2
 295 695 l 2
 179 695 138 664 128 571 c 0
 128 567 127 563 127 559 c 0
 127 555 128 550 128 546 c 0
 128 529 125 515 104 515 c 0
 78 515 73 525 73 542 c 0
 73 552 75 563 75 577 c 2
EndSplineSet
EndChar

StartChar: a
Encoding: 97 97 38
Width: 551
VWidth: 1155
Flags: HMW
LayerCount: 2
Fore
SplineSet
174 393 m 0
 174 359 153 340 119 340 c 0
 88 340 60 359 60 403 c 0
 60 480 152 530 253 530 c 0
 403 530 441 448 441 367 c 2
 441 71 l 2
 441 51 453 42 467 42 c 0
 477 42 488 44 500 56 c 0
 510 65 512 77 522 77 c 0
 525 77 529 76 534 73 c 0
 543 68 546 62 546 56 c 0
 546 45 535 34 524 23 c 0
 501 0 472 -10 443 -10 c 0
 411 -10 381 1 364 26 c 0
 351 46 355 64 350 64 c 0
 347 64 343 60 332 49 c 4
 295 13 246 -10 185 -10 c 0
 96 -10 30 39 30 123 c 0
 30 217 117 299 289 299 c 2
 328 299 l 2
 348 299 352 306 352 318 c 0
 352 325 351 334 351 344 c 2
 351 367 l 2
 351 434 328 484 238 484 c 0
 184 484 146 465 146 445 c 0
 146 427 174 432 174 393 c 0
322 261 m 2
 289 261 l 2
 173 261 132 215 132 138 c 0
 132 71 180 46 230 46 c 0
 298 46 351 100 351 191 c 2
 351 210 l 2
 351 221 352 231 352 238 c 0
 352 254 348 261 322 261 c 2
EndSplineSet
EndChar

StartChar: b
Encoding: 98 98 39
Width: 628
VWidth: 1155
Flags: HMW
LayerCount: 2
Fore
SplineSet
61 725 m 0
 51 725 43 724 36 724 c 0
 22 724 15 728 15 751 c 0
 15 777 22 781 37 781 c 0
 44 781 53 780 64 780 c 2
 151 780 l 2
 160 780 166 780 172 780 c 0
 190 780 195 777 195 748 c 2
 195 493 l 2
 195 449 197 434 202 434 c 0
 208 434 219 459 235 476 c 0
 267 510 310 529 361 529 c 0
 480 529 583 430 583 260 c 0
 583 90 480 -10 361 -10 c 0
 293 -10 230 19 207 82 c 0
 204 89 202 93 200 93 c 0
 197 93 195 84 195 61 c 2
 195 37 l 2
 195 2 193 0 164 -0 c 0
 161 0 158 0 154 0 c 2
 40 0 l 2
 18 0 15 3 15 17 c 0
 15 21 15 27 15 34 c 4
 15 53 29 55 48 55 c 0
 54 55 60 55 67 55 c 4
 101 55 106 58 106 94 c 0
 106 108 105 126 105 151 c 2
 105 685 l 2
 105 723 103 725 71 725 c 0
 68 725 65 725 61 725 c 0
195 260 m 0
 195 146 252 42 343 42 c 0
 427 42 483 146 483 260 c 0
 483 374 427 478 343 478 c 0
 252 478 195 374 195 260 c 0
EndSplineSet
EndChar

StartChar: c
Encoding: 99 99 40
Width: 548
VWidth: 1155
Flags: HMW
LayerCount: 2
Fore
SplineSet
490 381 m 0
 490 333 455 315 426 315 c 0
 399 315 369 336 369 373 c 0
 369 409 401 414 401 437 c 0
 401 464 358 483 304 483 c 0
 195 483 146 374 146 270 c 0
 146 146 185 39 294 39 c 0
 367 39 415 80 443 144 c 0
 452 164 448 173 479 173 c 0
 495 173 503 171 503 162 c 0
 503 158 502 153 499 146 c 0
 459.994032287 54.9860753359 403 -10 292 -10 c 0
 121 -10 45 110 45 250 c 0
 45 410 133 530 294 530 c 0
 416 530 490 463 490 381 c 0
EndSplineSet
EndChar

StartChar: d
Encoding: 100 100 41
Width: 628
VWidth: 1155
Flags: HMW
LayerCount: 2
Fore
SplineSet
613 19 m 4
 613 3 600 0 576 0 c 2
 468 0 l 2
 436 0 433 3 433 25 c 0
 433 30 433 37 433 45 c 2
 433 67 l 2
 433 89 432 97 430 97 c 0
 427 97 421 81 412 67 c 0
 378 18 329 -10 267 -10 c 0
 148 -10 45 90 45 260 c 0
 45 430 148 529 267 529 c 0
 310 529 348 515 378 490 c 0
 406 467 420 433 427 433 c 0
 432 433 433 452 433 507 c 2
 433 678 l 2
 433 688 434 696 434 703 c 0
 434 718 430 725 404 725 c 0
 391 725 381 724 373 724 c 0
 350 724 343 729 343 768 c 0
 343 779 351 781 360 781 c 0
 367 781 375 780 382 780 c 2
 486 780 l 2
 519 780 524 773 524 753 c 0
 524 746 523 737 523 726 c 2
 523 103 l 2
 523 49 524 56 584 55 c 0
 586 55 587 55 589 55 c 0
 604 55 613 53 613 19 c 4
433 260 m 0
 433 374 376 478 285 478 c 0
 201 478 145 374 145 260 c 0
 145 146 201 42 285 42 c 0
 376 42 433 146 433 260 c 0
EndSplineSet
EndChar

StartChar: e
Encoding: 101 101 42
Width: 546
VWidth: 1155
Flags: HMW
LayerCount: 2
Fore
SplineSet
440 261 m 8
 340 261 184 261 184 261 c 2
 153 261 147 259 147 241 c 0
 147 236 147 229 148 220 c 0
 157 119 196 39 290 39 c 0
 361 39 410 78 439 139 c 0
 448 159 444 173 475 173 c 0
 495 173 501 170 501 163 c 0
 501 157 497 149 493 138 c 0
 461 50 394 -10 278 -10 c 0
 127 -10 45 110 45 250 c 0
 45 410 124 530 285 530 c 0
 434 530 489 429 500 310 c 0
 501 303 501 296 501 291 c 0
 501 264 492 261 465 261 c 0
 458 261 449 261 440 261 c 8
400 342 m 4
 389 419 358 486 285 486 c 0
 209 486 169 431 155 362 c 0
 151 340 148 327 148 318 c 0
 148 305 156 304 181 304 c 0
 185 304 189 304 194 304 c 2
 376 304 l 2
 398 304 403 308 403 318 c 0
 403 324 401 332 400 342 c 4
EndSplineSet
EndChar

StartChar: f
Encoding: 102 102 43
Width: 401
VWidth: 1155
Flags: HMW
LayerCount: 2
Fore
SplineSet
211 441 m 2
 211 93 l 2
 211 58 215 55 239 55 c 0
 245 55 251 55 259 55 c 2
 303 55 l 2
 329 55 331 52 331 32 c 0
 331 29 331 26 331 23 c 0
 331 3 325 -1 313 -1 c 0
 307 -1 300 0 291 0 c 2
 73 0 l 2
 64 0 56 -1 49 -1 c 0
 38 -1 31 2 31 17 c 0
 31 19 31 20 31 22 c 0
 31 54 32 55 67 55 c 0
 74 55 80 55 85 55 c 0
 117 55 121 58 121 101 c 2
 121 419 l 2
 121 430 122 438 122 445 c 0
 122 458 118 465 97 465 c 2
 55 465 l 2
 34 465 30 470 30 483 c 0
 30 489 31 496 31 505 c 0
 31 519 36 522 48 522 c 0
 57 522 69 520 85 520 c 4
 117 520 123 530 123 547 c 0
 123 554 122 563 121 572 c 1
 121 703 188 790 318 790 c 0
 419 790 486 736 486 679 c 0
 486 636 462 613 427 613 c 0
 392 613 369 633 369 661 c 0
 369 691 390 698 390 718 c 0
 390 730 372 745 320 745 c 0
 240 745 211 677 211 550 c 0
 211 548 211 547 211 545 c 0
 211 521 212 520 239 520 c 2
 299 520 l 2
 308 520 316 520 322 520 c 0
 347 520 351 516 351 479 c 0
 351 467 345 464 337 464 c 0
 332 464 326 465 319 465 c 2
 259 465 l 2
 248 465 239 466 232 466 c 0
 219 466 211 462 211 441 c 2
EndSplineSet
EndChar

StartChar: g
Encoding: 103 103 44
Width: 597
VWidth: 1155
Flags: HMW
LayerCount: 2
Fore
SplineSet
145 345 m 0
 145 271 170 200 249 200 c 0
 328 200 353 271 353 345 c 0
 353 419 328 490 249 490 c 0
 170 490 145 419 145 345 c 0
50 345 m 0
 50 455 128 530 249 530 c 0
 298 530 340 517 373 495 c 0
 385 487 392 483 397 483 c 0
 404 483 408 491 425 504 c 0
 449 522 474 530 493 530 c 0
 564 530 597 491 597 439 c 0
 597 405 574 384 544 384 c 0
 516 384 496 403 496 428 c 0
 496 460 515 462 515 478 c 0
 515 488 508 493 496 493 c 0
 478 493 460 487 443 472 c 0
 431 462 427 454 427 446 c 0
 427 438 431 429 436 416 c 0
 444 395 448 371 448 345 c 0
 448 235 370 160 249 160 c 0
 238 160 227 161 217 162 c 0
 212 163 207 163 203 163 c 0
 188 163 178 159 163 150 c 0
 141 137 125 121 125 106 c 0
 125 69 167 69 222 69 c 0
 247 69 305 70 333 70 c 0
 428 70 520 54 520 -82 c 0
 520 -193 420 -260 260 -260 c 0
 117 -260 25 -220 25 -135 c 0
 25 -86 51 -47 82 -22 c 0
 100 -7 109 -4 109 -1 c 0
 109 2 99 5 82 20 c 0
 66 34 57 54 57 84 c 0
 57 121 84 154 130 174 c 0
 139 178 142 181 142 184 c 0
 142 191 123 195 110 206 c 4
 72 239 50 287 50 345 c 0
449 -107 m 0
 449 -53 415 -9 350 -9 c 0
 329 -9 258 -9 236 -9 c 0
 217 -9 197 -9 179 -8 c 0
 177 -8 175 -8 173 -8 c 0
 147 -8 139 -21 131 -40 c 4
 121 -63 120 -87 120 -102 c 0
 120 -170 170 -213 276 -213 c 0
 360 -213 449 -179 449 -107 c 0
EndSplineSet
EndChar

StartChar: h
Encoding: 104 104 45
Width: 660
VWidth: 1155
Flags: HMW
LayerCount: 2
Fore
SplineSet
60 725 m 0
 50 725 42 724 35 724 c 0
 21 724 15 728 15 750 c 0
 15 777 22 781 38 781 c 0
 46 781 56 780 68 780 c 2
 168 780 l 2
 192 780 196 775 196 761 c 0
 196 755 195 747 195 738 c 2
 195 506 l 2
 195 475 193 453 193 442 c 0
 193 435 194 432 196 432 c 0
 200 432 207 442 224 462 c 0
 257 502 307 530 378 530 c 0
 505 530 540 476 540 369 c 2
 540 96 l 2
 540 92 540 89 540 86 c 0
 540 56 542 55 578 55 c 0
 590 55 599 56 607 56 c 0
 622 56 630 52 630 26 c 0
 630 21 630 16 630 13 c 0
 630 3 628 0 612 0 c 2
 388 0 l 2
 363 0 361 3 361 19 c 0
 361 23 361 28 361 34 c 0
 361 53 366 56 377 56 c 0
 382 56 388 55 396 55 c 2
 434 55 l 2
 449 55 452 64 452 76 c 0
 452 85 450 95 450 104 c 2
 450 358 l 2
 450 432 421 473 355 473 c 0
 257 473 195 386 195 283 c 2
 195 94 l 2
 195 58 199 55 224 55 c 0
 230 55 236 55 244 55 c 0
 250 55 255 55 260 55 c 0
 281 55 285 52 285 22 c 0
 285 2 279 -1 267 -1 c 0
 261 -1 253 0 244 0 c 2
 46 0 l 2
 16 0 15 2 15 29 c 0
 15 31 15 32 15 34 c 0
 15 54 15 55 34 55 c 2
 74 55 l 2
 102 55 105 59 105 77 c 0
 105 82 105 88 105 96 c 2
 105 680 l 2
 105 725 105 725 60 725 c 0
EndSplineSet
EndChar

StartChar: i
Encoding: 105 105 46
Width: 310
VWidth: 1155
Flags: HMW
LayerCount: 2
Fore
SplineSet
95 700 m 0
 95 733 122 760 155 760 c 0
 188 760 215 733 215 700 c 0
 215 667 188 640 155 640 c 0
 122 640 95 667 95 700 c 0
100 465 m 2
 58 465 l 2
 56 465 55 465 53 465 c 0
 26 465 25 466 25 496 c 0
 25 518 29 520 43 520 c 0
 47 520 52 520 58 520 c 2
 172 520 l 2
 201 520 206 513 206 495 c 0
 206 488 205 479 205 468 c 2
 205 124 l 2
 205 102 203 86 203 76 c 0
 203 56 209 55 242 55 c 0
 254 55 264 56 272 56 c 0
 288 56 295 52 295 24 c 0
 295 2 287 0 271 -0 c 0
 266 0 259 0 252 0 c 6
 70 0 l 2
 60 0 52 -1 45 -1 c 0
 32 -1 25 3 25 24 c 0
 25 53 28 55 49 55 c 0
 53 55 57 55 62 55 c 2
 88 55 l 2
 115 55 115 63 115 90 c 2
 115 414 l 2
 115 423 117 434 117 443 c 0
 117 455 114 465 100 465 c 2
EndSplineSet
EndChar

StartChar: j
Encoding: 106 106 47
Width: 262
VWidth: 1155
Flags: HMW
LayerCount: 2
Fore
SplineSet
92 700 m 0
 92 733 119 760 152 760 c 0
 185 760 212 733 212 700 c 0
 212 667 185 640 152 640 c 0
 119 640 92 667 92 700 c 0
94 465 m 2
 40 465 l 2
 27 465 24 470 24 479 c 0
 24 484 25 490 25 497 c 0
 25 518 28 520 41 520 c 0
 45 520 50 520 56 520 c 2
 168 520 l 6
 202 520 205 513 205 496 c 0
 205 491 205 486 205 479 c 2
 205 11 l 2
 205 -139 184 -260 43 -260 c 0
 -46 -260 -98 -202 -98 -140 c 0
 -98 -102 -74 -69 -39 -69 c 0
 -5 -69 19 -92 19 -125 c 0
 19 -160 0 -159 0 -179 c 0
 0 -192 6 -216 43 -216 c 0
 108 -216 122 -145 122 -63 c 0
 122 -6 115 57 115 104 c 2
 115 429 l 2
 115 437 116 444 116 449 c 0
 116 460 113 465 94 465 c 2
EndSplineSet
EndChar

StartChar: k
Encoding: 107 107 48
Width: 597
VWidth: 1155
Flags: HMW
LayerCount: 2
Fore
SplineSet
73 725 m 2
 43 725 l 2
 17 725 15 727 15 746 c 0
 15 750 15 754 15 759 c 0
 15 778 24 782 36 782 c 0
 44 782 53 780 64 780 c 2
 154 780 l 2
 191 780 196 772 196 750 c 0
 196 741 195 729 195 714 c 2
 195 375 l 2
 195 332 195 310 208 310 c 0
 215 310 224 317 240 329 c 2
 373 437 l 2
 384 446 396 453 396 458 c 0
 396 462 388 465 363 465 c 6
 322 465 l 2
 306 465 303 470 303 480 c 0
 303 486 304 493 304 501 c 0
 304 518 311 521 322 521 c 0
 329 521 337 520 346 520 c 2
 535 520 l 2
 544 520 552 521 559 521 c 0
 570 521 577 518 577 501 c 0
 577 469 571 465 551 465 c 0
 544 465 536 465 526 465 c 0
 481 465 474 455 451 436 c 2
 328 336 l 0
 291 306 l 1
 317 279 l 0
 491 96 l 2
 512 74 518 55 562 55 c 0
 567 55 571 55 574 55 c 0
 588 55 591 53 591 33 c 0
 591 25 592 20 592 15 c 0
 592 5 589 0 571 0 c 2
 397 0 l 2
 387 0 379 -1 373 -1 c 0
 360 -1 354 3 354 24 c 0
 354 29 354 33 354 36 c 0
 354 52 356 55 379 55 c 0
 402 55 410 55 410 59 c 0
 410 62 403 68 394 78 c 2
 260 216 l 2
 248 228 215 273 201 273 c 0
 197 273 195 269 195 261 c 2
 195 102 l 2
 195 96 195 90 195 85 c 0
 195 58 198 55 235 55 c 0
 243 55 251 56 258 56 c 0
 268 56 275 53 275 39 c 0
 275 2 273 0 242 -0 c 0
 239 0 236 0 232 0 c 2
 61 0 l 2
 51 0 42 -1 35 -1 c 0
 23 -1 15 2 15 21 c 0
 15 52 19 55 41 55 c 0
 46 55 52 55 58 55 c 0
 68 55 76 54 83 54 c 0
 98 54 105 58 105 84 c 2
 105 690 l 2
 105 693 105 696 105 699 c 0
 105 723 103 725 73 725 c 2
EndSplineSet
EndChar

StartChar: l
Encoding: 108 108 49
Width: 300
VWidth: 1155
Flags: HMW
LayerCount: 2
Fore
SplineSet
76 725 m 6
 48 725 l 2
 18 725 15 729 15 750 c 0
 15 755 15 760 15 766 c 0
 15 779 25 781 37 781 c 0
 46 781 56 780 64 780 c 2
 154 780 l 2
 161 780 168 780 173 780 c 0
 192 780 195 777 195 748 c 2
 195 122 l 2
 195 107 194 95 194 85 c 0
 194 64 199 55 234 55 c 2
 260 55 l 2
 265 55 270 55 273 55 c 0
 282 55 285 53 285 38 c 2
 285 16 l 2
 285 1 284 0 274 -0 c 0
 272 0 269 0 266 0 c 2
 48 0 l 2
 17 0 15 2 15 25 c 0
 15 29 15 33 15 38 c 0
 15 54 26 57 40 57 c 0
 50 57 62 55 72 55 c 4
 101 55 106 84 106 117 c 0
 106 131 105 146 105 160 c 2
 105 690 l 2
 105 695 105 699 105 703 c 0
 105 722 103 725 76 725 c 6
EndSplineSet
EndChar

StartChar: m
Encoding: 109 109 50
Width: 923
VWidth: 1155
Flags: HMW
LayerCount: 2
Fore
SplineSet
56 465 m 0
 33 465 30 471 30 485 c 0
 30 490 30 497 30 505 c 0
 30 519 39 521 50 521 c 0
 58 521 67 520 76 520 c 2
 162 520 l 2
 170 520 177 520 182 520 c 0
 195 520 200 517 200 495 c 0
 200 452 200 437 204 437 c 0
 209 437 219 460 240 481 c 0
 270 511 310 530 364 530 c 0
 429 530 458 510 478 470 c 0
 489 448 496 440 502 440 c 0
 512 440 520 460 544 482 c 0
 575 511 617 530 670 530 c 0
 777 530 812 476 812 369 c 2
 812 135 l 2
 812 120 809 103 809 89 c 0
 809 70 814 55 838 55 c 2
 874 55 l 2
 893 55 893 54 893 35 c 0
 893 3 890 0 867 -0 c 0
 862 0 856 0 850 0 c 2
 652 0 l 2
 631 0 628 5 628 17 c 0
 628 22 629 29 629 37 c 0
 629 53 637 56 649 56 c 0
 657 56 666 55 676 55 c 0
 718 55 722 60 722 88 c 0
 722 95 722 104 722 115 c 2
 722 358 l 2
 722 432 703 473 647 473 c 0
 539 473 506 386 506 283 c 2
 506 165 l 2
 506 121 503 94 503 78 c 0
 503 59 508 55 530 55 c 2
 570 55 l 2
 585 55 587 52 587 42 c 0
 587 39 587 35 587 31 c 0
 587 3 581 -1 564 -1 c 0
 557 -1 548 0 538 0 c 2
 374 0 l 2
 366 0 359 -1 353 -1 c 0
 342 -1 336 2 336 19 c 0
 336 21 336 22 336 24 c 0
 336 54 337 55 370 55 c 2
 394 55 l 2
 414 55 417 60 417 72 c 0
 417 77 416 83 416 91 c 2
 416 155 l 0
 416 358 l 2
 416 432 397 473 341 473 c 0
 243 473 200 386 200 283 c 2
 200 143 l 0
 200 77 l 2
 200 57 203 55 215 55 c 0
 219 55 225 55 232 55 c 0
 244 55 257 57 267 57 c 0
 282 57 293 53 293 33 c 0
 293 28 293 24 293 20 c 0
 293 2 291 0 266 0 c 2
 80 0 l 2
 69 0 59 -1 51 -1 c 0
 38 -1 30 2 30 23 c 0
 30 25 30 26 30 28 c 0
 30 54 31 55 60 55 c 0
 105 55 111 66 111 93 c 0
 111 104 110 118 110 135 c 2
 110 437 l 2
 110 462 101 466 86 466 c 0
 78 466 68 465 56 465 c 0
EndSplineSet
EndChar

StartChar: n
Encoding: 110 110 51
Width: 675
VWidth: 1155
Flags: HMW
LayerCount: 2
Fore
SplineSet
62 465 m 0
 33 465 30 470 30 488 c 0
 30 494 30 500 30 509 c 0
 30 519 38 521 49 521 c 0
 57 521 67 520 74 520 c 2
 170 520 l 2
 178 520 185 520 190 520 c 0
 205 520 210 517 210 493 c 2
 210 465 l 2
 210 436 211 426 214 426 c 0
 218 426 226 447 240 464 c 0
 273 503 322 530 393 530 c 0
 520 530 555 476 555 369 c 2
 555 107 l 2
 555 96 554 85 554 77 c 0
 554 63 557 55 578 55 c 2
 608 55 l 2
 613 55 617 55 621 55 c 0
 643 55 645 53 645 23 c 0
 645 2 636 -1 622 -1 c 0
 614 -1 603 0 592 0 c 2
 398 0 l 2
 378 0 374 6 374 18 c 0
 374 24 375 30 375 39 c 0
 375 53 384 56 395 56 c 0
 403 56 411 55 420 55 c 2
 436 55 l 2
 463 55 465 59 465 77 c 0
 465 81 465 87 465 93 c 2
 465 358 l 2
 465 432 436 473 370 473 c 0
 307 473 259 437 233 385 c 4
 212 343 210 301 210 243 c 6
 210 95 l 2
 210 57 212 55 244 55 c 0
 247 55 250 55 254 55 c 0
 261 55 266 55 271 55 c 0
 296 55 300 52 300 17 c 0
 300 1 284 -2 265 -2 c 0
 249 -2 232 0 220 0 c 2
 74 0 l 2
 64 0 56 -1 50 -1 c 0
 37 -1 30 3 30 25 c 0
 30 52 34 55 51 55 c 0
 57 55 64 55 72 55 c 0
 118 55 120 59 120 95 c 0
 120 99 120 104 120 109 c 2
 120 425 l 2
 120 461 113 466 92 466 c 0
 84 466 74 465 62 465 c 0
EndSplineSet
EndChar

StartChar: o
Encoding: 111 111 52
Width: 568
VWidth: 1155
Flags: HMW
LayerCount: 2
Fore
SplineSet
45 250 m 0
 45 410 123 530 284 530 c 0
 445 530 523 410 523 270 c 0
 523 110 445 -10 284 -10 c 0
 123 -10 45 110 45 250 c 0
150 270 m 0
 150 146 175 35 284 35 c 0
 393 35 418 146 418 250 c 0
 418 374 393 485 284 485 c 0
 175 485 150 374 150 270 c 0
EndSplineSet
EndChar

StartChar: p
Encoding: 112 112 53
Width: 628
VWidth: 1155
Flags: HMW
LayerCount: 2
Fore
SplineSet
15 494 m 0
 15 517 26 521 44 521 c 0
 52 521 62 520 73 520 c 2
 167 520 l 2
 192 520 196 513 196 499 c 0
 196 492 195 483 195 472 c 0
 195 438 196 426 199 426 c 0
 203 426 210 447 225 465 c 0
 258 507 305 530 361 530 c 0
 480 530 583 430 583 260 c 0
 583 90 480 -9 361 -9 c 0
 310 -9 267 10 235 44 c 0
 218 62 206 94 200 94 c 0
 196 94 195 82 195 50 c 2
 195 -142 l 2
 195 -150 195 -157 195 -163 c 0
 195 -191 198 -195 239 -195 c 0
 249 -195 257 -194 264 -194 c 0
 279 -194 285 -198 285 -224 c 0
 285 -229 285 -233 285 -237 c 0
 285 -246 283 -250 269 -250 c 2
 57 -250 l 2
 49 -250 40 -251 33 -251 c 0
 22 -251 15 -248 15 -234 c 0
 15 -199 20 -195 43 -195 c 0
 50 -195 59 -195 69 -195 c 0
 102 -195 105 -192 105 -169 c 0
 105 -164 105 -158 105 -152 c 2
 105 432 l 2
 105 462 103 465 83 465 c 0
 77 465 69 465 59 465 c 4
 17 465 15 471 15 487 c 0
 15 489 15 492 15 494 c 0
195 260 m 0
 195 146 252 42 343 42 c 0
 427 42 483 146 483 260 c 0
 483 374 427 478 343 478 c 0
 252 478 195 374 195 260 c 0
EndSplineSet
EndChar

StartChar: q
Encoding: 113 113 54
Width: 628
VWidth: 1155
Flags: HMW
LayerCount: 2
Fore
SplineSet
552 -195 m 6
 596 -195 l 2
 611 -195 613 -198 613 -207 c 0
 613 -210 613 -215 613 -220 c 0
 613 -223 613 -226 613 -229 c 0
 613 -248 611 -250 586 -250 c 2
 394 -250 l 2
 383 -250 372 -252 364 -252 c 0
 351 -252 343 -248 343 -230 c 2
 343 -212 l 2
 343 -197 346 -195 355 -195 c 0
 358 -195 363 -195 368 -195 c 2
 412 -195 l 2
 431 -195 435 -183 435 -168 c 0
 435 -157 433 -144 433 -132 c 2
 433 -2 l 2
 433 8 433 17 433 25 c 0
 433 66 432 80 427 80 c 0
 422 80 413 65 394 45 c 4
 362 10 319 -9 267 -9 c 0
 148 -9 45 90 45 260 c 0
 45 430 148 530 267 530 c 0
 319 530 362 510 394 475 c 0
 412 456 423 427 428 427 c 0
 432 427 433 440 433 476 c 0
 433 516 437 520 464 520 c 0
 470 520 479 520 488 520 c 2
 562 520 l 2
 573 520 584 522 592 522 c 0
 605 522 613 518 613 500 c 0
 613 494 613 489 613 485 c 0
 613 469 611 465 586 465 c 2
 544 465 l 2
 525 465 523 461 523 450 c 0
 523 446 523 441 523 434 c 2
 523 -128 l 2
 523 -143 521 -156 521 -167 c 0
 521 -184 526 -195 552 -195 c 6
433 260 m 0
 433 374 376 478 285 478 c 0
 201 478 145 374 145 260 c 0
 145 146 201 42 285 42 c 0
 376 42 433 146 433 260 c 0
EndSplineSet
EndChar

StartChar: r
Encoding: 114 114 55
Width: 453
VWidth: 1155
Flags: HMW
LayerCount: 2
Fore
SplineSet
255 0 m 6
 51 0 l 2
 49 0 48 0 46 -0 c 0
 26 0 25 1 25 25 c 0
 25 31 25 35 25 39 c 0
 25 51 27 55 47 55 c 2
 99 55 l 2
 113 55 116 62 116 72 c 0
 116 79 115 87 115 95 c 2
 115 431 l 2
 115 436 115 440 115 444 c 0
 115 463 113 465 87 465 c 2
 49 465 l 2
 25 465 25 465 25 489 c 2
 25 507 l 2
 25 519 35 522 48 522 c 0
 58 522 70 520 79 520 c 2
 157 520 l 2
 162 520 167 520 171 520 c 0
 203 520 205 518 205 477 c 4
 205 449 206 439 209 439 c 0
 214 439 224 469 239 486 c 0
 263 513 297 530 345 530 c 0
 401 530 453 494 453 436 c 0
 453 394 426 360 391 360 c 0
 357 360 330 380 330 411 c 0
 330 447 353 454 353 466 c 0
 353 476 347 481 323 481 c 0
 270 481 228 422 212 347 c 0
 206 317 205 285 205 250 c 0
 205 241 205 232 205 223 c 2
 205 93 l 2
 205 89 205 86 205 83 c 0
 205 57 207 55 239 55 c 2
 267 55 l 2
 295 55 295 55 295 27 c 0
 295 3 290 0 275 -0 c 0
 270 0 263 0 255 0 c 6
EndSplineSet
EndChar

StartChar: s
Encoding: 115 115 56
Width: 471
VWidth: 1155
Flags: HMW
LayerCount: 2
Fore
SplineSet
362 388 m 4
 342 448 278 481 234 481 c 0
 171 481 126 453 126 406 c 0
 126 266 441 350 441 152 c 0
 441 48 361 -12 254 -12 c 0
 202 -12 160 7 131 29 c 0
 117 40 110 50 105 50 c 0
 101 50 98 44 93 28 c 0
 85 2 89 -10 52 -10 c 0
 33 -10 30 -4 30 7 c 0
 30 13 31 21 31 30 c 2
 31 148 l 2
 31 150 31 151 31 153 c 0
 31 172 32 173 54 173 c 0
 98 173 83 154 97 124 c 0
 122 71 185 40 234 40 c 0
 314 40 358 82 358 133 c 0
 358 270 48 184 48 380 c 0
 48 484 128 532 213 532 c 0
 257 532 291 518 316 500 c 0
 335 486 342 470 348 470 c 0
 352 470 356 477 363 498 c 8
 373 524 365 530 390 530 c 16
 397 530 403 531 408 531 c 0
 418 531 423 528 423 512 c 8
 423 462 423 434 423 384 c 16
 423 377 423 371 423 367 c 0
 423 353 420 350 398 350 c 8
 360 350 371 360 362 388 c 4
EndSplineSet
EndChar

StartChar: t
Encoding: 116 116 57
Width: 382
VWidth: 1155
Flags: HMW
LayerCount: 2
Fore
SplineSet
332 64 m 4
 307 20 266 -12 204 -12 c 0
 132 -12 103 31 103 86 c 2
 103 405 l 2
 103 418 105 430 105 440 c 0
 105 456 100 465 76 465 c 2
 42 465 l 2
 35 465 29 465 25 465 c 0
 13 465 10 467 10 487 c 0
 10 519 10 519 40 520 c 0
 100 523 132 542 137 665 c 0
 138 696 135 700 170 700 c 0
 190 700 194 693 194 680 c 0
 194 673 193 663 193 653 c 2
 193 555 l 2
 193 553 193 552 193 550 c 0
 193 521 194 520 226 520 c 2
 304 520 l 2
 312 520 318 521 323 521 c 0
 335 521 340 518 340 497 c 0
 340 492 340 488 340 485 c 0
 340 468 338 465 314 465 c 2
 218 465 l 2
 196 465 193 460 193 446 c 0
 193 441 193 436 193 429 c 2
 193 107 l 2
 193 67 210 50 237 50 c 0
 257 50 275 61 290 81 c 0
 300 95 303 117 319 117 c 0
 322 117 325 116 328 115 c 0
 342 110 347 104 347 97 c 0
 347 88 340 78 332 64 c 4
EndSplineSet
EndChar

StartChar: u
Encoding: 117 117 58
Width: 675
VWidth: 1155
Flags: HMW
LayerCount: 2
Fore
SplineSet
120 151 m 2
 120 437 l 2
 120 442 120 446 120 449 c 0
 120 463 118 465 98 465 c 2
 70 465 l 2
 63 465 57 465 52 465 c 0
 35 465 30 468 30 495 c 0
 30 517 37 521 50 521 c 0
 57 521 65 520 76 520 c 2
 166 520 l 2
 176 520 183 521 189 521 c 0
 205 521 210 517 210 491 c 2
 210 162 l 2
 210 88 239 37 305 37 c 0
 403 37 465 134 465 237 c 2
 465 417 l 2
 465 422 465 427 465 431 c 0
 465 463 463 465 422 465 c 0
 411 465 402 464 395 464 c 0
 381 464 375 468 375 491 c 0
 375 518 378 520 397 520 c 0
 401 520 405 520 410 520 c 2
 510 520 l 2
 552 520 555 517 555 485 c 0
 555 480 555 474 555 467 c 2
 555 117 l 2
 555 103 553 92 553 82 c 0
 553 65 558 55 584 55 c 2
 618 55 l 2
 643 55 645 53 645 34 c 0
 645 31 645 28 645 25 c 0
 645 3 639 -1 626 -1 c 0
 620 -1 613 0 604 0 c 2
 512 0 l 2
 502 0 494 0 488 -0 c 0
 470 0 465 3 465 33 c 0
 465 56 467 75 467 85 c 0
 467 90 467 93 465 93 c 0
 462 93 457 87 448 73 c 4
 415 25 362 -10 282 -10 c 0
 155 -10 120 44 120 151 c 2
EndSplineSet
EndChar

StartChar: v
Encoding: 118 118 59
Width: 589
VWidth: 1155
Flags: HMW
LayerCount: 2
Fore
SplineSet
332 151 m 6
 434 427 l 2
 439 440 445 449 445 455 c 0
 445 462 438 465 416 465 c 2
 380 465 l 2
 362 465 359 469 359 480 c 0
 359 485 360 491 360 499 c 0
 360 518 364 521 375 521 c 0
 380 521 386 520 394 520 c 2
 546 520 l 2
 554 520 561 520 566 520 c 0
 579 520 584 517 584 495 c 0
 584 468 579 464 563 464 c 0
 557 464 549 465 540 465 c 2
 516 465 l 2
 497 465 497 444 492 431 c 2
 350 51 l 2
 342 29 340 -10 308 -10 c 2
 294 -10 l 2
 261 -10 261 22 252 45 c 2
 103 435 l 2
 93 460 94 465 58 465 c 2
 30 465 l 2
 6 465 5 466 5 484 c 0
 5 487 5 490 5 493 c 0
 5 498 5 502 5 506 c 0
 5 516 7 520 24 520 c 2
 214 520 l 2
 228 520 239 521 248 521 c 0
 268 521 276 516 276 483 c 0
 276 467 272 465 262 465 c 0
 258 465 253 465 246 465 c 2
 228 465 l 2
 202 465 193 457 193 446 c 0
 193 431 208 410 215 389 c 2
 281 199 l 2
 293 163 299 117 311 117 c 0
 316 117 323 126 332 151 c 6
EndSplineSet
EndChar

StartChar: w
Encoding: 119 119 60
Width: 865
VWidth: 1155
Flags: HMW
LayerCount: 2
Fore
SplineSet
305 163 m 6
 405 495 l 2
 411 514 409 520 434 520 c 0
 481 520 477 511 488 477 c 2
 586 165 l 2
 595 136 599 123 603 123 c 0
 608 123 612 142 621 175 c 2
 690 419 l 2
 694 434 697 444 697 451 c 0
 697 465 685 465 646 465 c 0
 642 465 639 465 636 465 c 0
 608 465 606 467 606 501 c 0
 606 518 622 522 640 522 c 0
 654 522 670 520 682 520 c 2
 808 520 l 2
 820 520 829 521 836 521 c 0
 853 521 860 516 860 487 c 0
 860 467 857 465 845 465 c 0
 841 465 835 465 828 465 c 2
 798 465 l 2
 756 465 761 450 752 419 c 2
 648 59 l 2
 637 22 644 -10 592 -10 c 0
 547 -10 553 11 543 43 c 2
 452 335 l 2
 444 361 440 380 436 380 c 0
 433 380 429 370 422 347 c 2
 331 51 l 2
 323 24 326 -10 288 -10 c 0
 234 -10 239 4 226 43 c 2
 102 423 l 2
 93 449 97 465 60 465 c 2
 30 465 l 2
 8 465 5 470 5 484 c 0
 5 489 5 494 5 501 c 0
 5 518 14 522 27 522 c 0
 36 522 46 520 56 520 c 2
 258 520 l 2
 264 520 270 520 274 520 c 0
 292 520 296 518 296 491 c 0
 296 467 294 465 275 465 c 0
 272 465 269 465 266 465 c 2
 212 465 l 2
 190 465 183 463 183 456 c 0
 183 450 187 441 191 429 c 2
 271 165 l 2
 280 135 284 120 288 120 c 0
 292 120 296 134 305 163 c 6
EndSplineSet
EndChar

StartChar: x
Encoding: 120 120 61
Width: 565
VWidth: 1155
Flags: HMW
LayerCount: 2
Fore
SplineSet
327 356 m 2
 405 442 l 2
 414 452 419 458 419 461 c 0
 419 465 410 465 385 465 c 0
 366 465 366 465 366 484 c 2
 366 506 l 2
 366 519 376 522 389 522 c 0
 399 522 410 520 419 520 c 2
 529 520 l 2
 532 520 535 520 538 520 c 0
 558 520 560 518 560 492 c 0
 560 467 558 465 540 465 c 0
 536 465 532 465 527 465 c 0
 486 465 477 439 458 418 c 2
 373 324 l 2
 354 304 346 292 346 280 c 0
 346 266 358 253 378 226 c 2
 462 112 l 2
 480 88 488 55 531 55 c 0
 534 55 537 55 540 55 c 0
 558 55 560 54 560 30 c 0
 560 3 554 -1 538 -1 c 0
 532 -1 525 0 515 0 c 2
 365 0 l 2
 360 0 356 0 352 0 c 0
 332 0 329 2 329 30 c 0
 329 54 330 55 348 55 c 0
 351 55 354 55 357 55 c 2
 394 55 l 1
 369 90 l 0
 324 150 l 2
 304 177 294 205 277 205 c 0
 270 205 262 200 251 188 c 2
 168 96 l 2
 157 84 137 71 137 63 c 0
 137 58 144 55 163 55 c 0
 171 55 180 56 187 56 c 0
 197 56 205 54 205 40 c 0
 205 32 205 25 205 20 c 0
 205 6 202 0 179 0 c 2
 45 0 l 2
 36 0 30 -1 24 -1 c 0
 12 -1 6 3 6 24 c 0
 6 31 5 37 5 42 c 0
 5 50 7 55 19 55 c 0
 71 55 78 80 102 106 c 6
 203 218 l 2
 222 239 233 248 233 261 c 0
 233 270 228 281 215 298 c 2
 117 430 l 2
 104 447 102 465 71 465 c 2
 37 465 l 2
 7 465 6 466 6 493 c 0
 6 495 6 496 6 498 c 0
 6 518 14 521 27 521 c 0
 35 521 44 520 55 520 c 2
 227 520 l 2
 249 520 252 517 252 503 c 0
 252 499 252 493 252 486 c 0
 252 467 249 465 237 465 c 0
 233 465 229 465 223 465 c 0
 212 465 207 462 207 457 c 0
 207 446 230 427 238 416 c 2
 278 362 l 2
 291 345 296 336 303 336 c 0
 309 336 315 342 327 356 c 2
EndSplineSet
EndChar

StartChar: y
Encoding: 121 121 62
Width: 628
VWidth: 1155
Flags: HMW
LayerCount: 2
Fore
SplineSet
136 -260 m 0
 59 -260 13 -198 13 -131 c 0
 13 -85 43 -58 74 -58 c 0
 104 -58 124 -76 124 -107 c 0
 124 -145 82 -140 82 -166 c 0
 82 -189 103 -210 136 -210 c 0
 175 -210 231 -180 278 -60 c 2
 285 -42 l 2
 290 -28 293 -18 293 -9 c 0
 293 6 286 19 277 40 c 2
 95 440 l 2
 84 464 80 465 44 465 c 0
 40 465 37 465 34 465 c 0
 7 465 5 467 5 500 c 0
 5 518 12 521 23 521 c 0
 29 521 37 520 46 520 c 2
 222 520 l 2
 234 520 244 521 252 521 c 0
 267 521 276 517 276 492 c 0
 276 467 273 465 256 465 c 0
 253 465 249 465 244 465 c 2
 222 465 l 2
 196 465 188 460 188 452 c 0
 188 442 200 428 208 410 c 2
 318 166 l 2
 331 136 337 121 343 121 c 0
 349 121 355 138 368 170 c 2
 470 430 l 2
 475 443 479 451 479 456 c 0
 479 463 471 465 444 465 c 0
 409 465 408 467 408 499 c 0
 408 501 408 502 408 504 c 0
 408 519 416 522 427 522 c 0
 435 522 445 520 454 520 c 2
 606 520 l 2
 621 520 623 515 623 506 c 0
 623 502 623 497 623 490 c 0
 623 468 617 464 603 464 c 0
 596 464 588 465 578 465 c 0
 537 465 541 449 530 422 c 2
 322 -102 l 2
 270 -233 194 -260 136 -260 c 0
EndSplineSet
EndChar

StartChar: z
Encoding: 122 122 63
Width: 551
VWidth: 1155
Flags: HMW
LayerCount: 2
Fore
SplineSet
241 470 m 2
 148 470 123 441 116 384 c 0
 115 379 115 374 115 369 c 0
 115 363 115 358 115 352 c 0
 115 333 112 318 84 318 c 0
 65 318 61 329 61 344 c 0
 61 355 63 368 63 380 c 2
 63 482 l 2
 63 520 64 520 102 520 c 2
 446 520 l 2
 456 520 465 521 473 521 c 0
 486 521 494 518 494 498 c 0
 494 451 463 432 441 406 c 2
 184 94 l 2
 171 78 156 66 156 59 c 0
 156 53 166 50 196 50 c 2
 304 50 l 2
 426 50 454 78 454 163 c 0
 454 171 453 180 453 188 c 0
 453 202 456 214 472 214 c 0
 501 214 506 205 506 187 c 0
 506 178 505 167 505 154 c 2
 505 58 l 2
 505 48 505 39 505 32 c 0
 505 6 501 0 462 0 c 6
 100 0 l 2
 93 0 85 0 78 -0 c 0
 58 0 40 2 40 18 c 0
 40 22 40 25 40 28 c 0
 40 62 42 51 83 102 c 2
 354 432 l 2
 366 447 378 457 378 463 c 0
 378 469 367 470 336 470 c 2
 241 470 l 2
EndSplineSet
EndChar

StartChar: comma
Encoding: 44 44 65
Width: 215
Flags: HMW
LayerCount: 2
Fore
SplineSet
40 49 m 4
 40 82 69 108 107 108 c 4
 146 108 177 77 177 4 c 4
 177 -55 142 -129 76 -150 c 4
 66 -153 57 -156 51 -156 c 0
 42 -156 38 -151 38 -132 c 4
 38 -109 52 -117 69 -110 c 4
 104 -96 130 -61 130 -16 c 0
 130 -13 130 -10 130 -7 c 4
 129 11 120 -4 113 -7 c 4
 107 -10 101 -10 93 -10 c 4
 60 -10 40 16 40 49 c 4
EndSplineSet
EndChar

StartChar: exclam
Encoding: 33 33 67
Width: 319
Flags: HMW
LayerCount: 2
Fore
SplineSet
218 659 m 0
 209 508 180 394 180 269 c 0
 180 261 181 250 181 241 c 0
 181 223 178 208 162 208 c 0
 141 208 138 222 138 239 c 0
 138 247 138 256 138 265 c 0
 138 268 138 270 138 273 c 4
 132 396 109 509 100 659 c 0
 100 666 100 672 100 678 c 0
 100 724 112 758 159 758 c 0
 206 758 219 724 219 678 c 0
 219 672 218 666 218 659 c 0
100 49 m 0
 100 82 126 108 159 108 c 0
 192 108 218 82 218 49 c 0
 218 16 192 -10 159 -10 c 0
 126 -10 100 16 100 49 c 0
EndSplineSet
EndChar

StartChar: quotesingle
Encoding: 39 39 70
Width: 199
Flags: HMW
LayerCount: 2
Fore
SplineSet
148 679 m 0
 139 617 124 567 119 518 c 0
 118 508 121 488 110 488 c 6
 95 488 l 2
 81 488 79 492 79 501 c 0
 79 503 79 505 79 507 c 0
 79 510 79 513 79 516 c 0
 75 566 59 616 50 679 c 0
 49 686 49 691 49 697 c 0
 49 736 70 758 99 758 c 0
 128 758 149 736 149 697 c 0
 149 691 149 686 148 679 c 0
EndSplineSet
EndChar

StartChar: question
Encoding: 63 63 75
Width: 550
Flags: HMW
LayerCount: 2
Fore
SplineSet
149 662 m 0
 149 632 180 631 180 580 c 0
 180 538 147 520 112 520 c 0
 77 520 45 543 45 591 c 0
 45 673 119 760 261 760 c 0
 422 760 500 680 500 550 c 0
 500 457 433 364 323 327 c 0
 299 319 277 326 277 291 c 2
 277 257 l 2
 277 247 278 238 278 231 c 0
 278 215 274 209 246 209 c 0
 220 209 216 215 216 231 c 0
 216 238 217 246 217 257 c 2
 217 310 l 2
 217 362 238 354 271 371 c 4
 348 412 399 485 399 570 c 0
 399 644 360 718 261 718 c 0
 177 718 149 684 149 662 c 0
EndSplineSet
Refer: 1 46 N 1 0 0 1 149 0 2
EndChar

StartChar: parenleft
Encoding: 40 40 76
Width: 445
Flags: HMW
LayerCount: 2
Fore
SplineSet
409 -150 m 4
 407 -163 400 -167 391 -167 c 0
 378 -167 360 -158 346 -153 c 0
 160 -86 55 86 55 325 c 0
 55 560 156 714 336 780 c 0
 350 785 374 797 390 797 c 0
 399 797 406 793 408 783 c 0
 409 777 410 772 410 768 c 0
 410 736 378 739 347 723 c 0
 222 657 170 524 170 325 c 0
 170 125 223 -24 349 -93 c 0
 378 -108 410 -106 410 -138 c 0
 410 -142 410 -145 409 -150 c 4
EndSplineSet
EndChar

StartChar: asterisk
Encoding: 42 42 78
Width: 635
VWidth: 1155
Flags: HMW
LayerCount: 2
Fore
SplineSet
403 503 m 4
 435 492 469 482 507 467 c 0
 514 464 518 462 523 459 c 0
 546 445 558 427 558 409 c 0
 558 401 555 393 551 385 c 0
 542 370 528 361 510 361 c 0
 499 361 486 364 473 372 c 0
 468 375 464 378 458 382 c 0
 427 407 401 431 376 453 c 0
 361 466 350 477 345 477 c 0
 342 477 341 474 341 468 c 0
 341 462 342 452 345 438 c 0
 351 405 360 370 366 329 c 0
 367 322 367 317 367 311 c 0
 367 272 346 250 317 250 c 0
 288 250 267 272 267 311 c 0
 267 317 267 322 268 329 c 0
 274 370 283 405 289 438 c 0
 292 452 293 461 293 467 c 0
 293 473 292 476 289 476 c 0
 284 476 273 466 258 453 c 0
 233 431 207 407 176 382 c 0
 170 378 166 375 161 372 c 0
 148 364 135 361 124 361 c 0
 106 361 92 370 83 385 c 0
 79 393 76 401 76 409 c 0
 76 427 88 445 111 459 c 0
 116 462 120 464 127 467 c 0
 163 481 196 492 227 502 c 0
 251 510 265 515 265 520 c 0
 265 524 256 528 234 536 c 0
 201 547 166 557 127 573 c 0
 120 576 116 578 111 581 c 0
 88 595 76 613 76 631 c 0
 76 639 79 647 83 655 c 0
 92 670 106 679 124 679 c 0
 135 679 148 676 161 668 c 0
 166 665 170 662 176 658 c 0
 208 633 234 609 259 587 c 0
 274 574 284 564 289 564 c 0
 291 564 292 567 292 572 c 0
 292 578 291 588 288 603 c 0
 282 636 274 671 268 711 c 0
 267 718 267 723 267 729 c 0
 267 768 288 790 317 790 c 0
 346 790 367 768 367 729 c 0
 367 723 367 718 366 711 c 0
 360 673 353 639 347 608 c 0
 343 590 341 579 341 572 c 0
 341 567 343 564 345 564 c 0
 349 564 358 572 373 585 c 0
 399 607 425 632 458 658 c 0
 464 662 468 665 473 668 c 0
 486 676 499 679 510 679 c 0
 528 679 542 670 551 655 c 0
 555 647 558 639 558 631 c 0
 558 613 546 595 523 581 c 0
 518 578 514 576 507 573 c 0
 467 557 432 547 399 535 c 0
 378 527 368 523 368 519 c 0
 368 515 380 511 403 503 c 4
EndSplineSet
EndChar

StartChar: at
Encoding: 64 64 79
Width: 1060
VWidth: 1155
Flags: HMW
LayerCount: 2
Fore
SplineSet
664 346 m 0
 664 388 650 478 584 478 c 0
 510 478 435 364 435 240 c 0
 435 173 450 122 514 122 c 0
 575 122 664 218 664 346 c 0
790 -109 m 0
 710 -178 605 -214 469 -214 c 0
 326 -214 65 -112 65 221 c 0
 65 554 312 790 585 790 c 0
 858 790 1005 604 1005 421 c 0
 1005 261 912 70 741 70 c 0
 696 70 668 90 652 117 c 0
 638 142 631 151 626 151 c 0
 619 151 613 134 592 116 c 0
 558 87 521 70 484 70 c 0
 405 70 334 126 334 230 c 0
 334 380 449 529 568 529 c 0
 618 529 648 509 668 466 c 4
 678 444 683 429 687 429 c 0
 690 429 693 438 698 460 c 0
 706 495 699 520 745 520 c 0
 786 520 797 516 797 502 c 0
 797 492 792 478 787 457 c 2
 730 210 l 2
 729 205 727 193 727 180 c 0
 727 158 733 132 763 132 c 0
 864 132 942 271 942 425 c 0
 942 602 786 737 602 737 c 0
 358 737 170 503 170 231 c 0
 170 -71 351 -159 495 -159 c 0
 579 -159 665 -135 742 -75 c 0
 755 -65 786 -38 804 -38 c 0
 807 -38 810 -39 812 -41 c 0
 823 -52 828 -60 828 -67 c 0
 828 -79 813 -89 790 -109 c 0
EndSplineSet
EndChar

StartChar: dollar
Encoding: 36 36 80
Width: 660
Flags: HMW
LayerCount: 2
Fore
SplineSet
350 835 m 0
 378 835 384 835 384 818 c 0
 384 814 383 808 383 802 c 2
 381 779 l 2
 381 776 381 774 381 772 c 0
 381 752 390 757 411 752 c 0
 501 734 574 685 574 579 c 0
 574 531 539 513 510 513 c 0
 483 513 453 534 453 571 c 0
 453 607 485 612 485 635 c 0
 485 655 465 683 414 698 c 0
 403 701 395 704 389 704 c 0
 379 704 375 696 374 672 c 2
 364 506 l 2
 363 493 363 483 363 475 c 0
 363 451 369 447 404 438 c 0
 509 412 610 368 610 215 c 0
 610 91 533 10 390 -7 c 0
 351 -12 331 1 328 -44 c 0
 326 -75 334 -85 296 -85 c 0
 276 -85 272 -80 272 -67 c 0
 272 -54 273 -39 273 -31 c 0
 273 -6 266 -8 230 -0 c 0
 109 25 46 98 46 186 c 0
 46 234 81 252 110 252 c 0
 137 252 167 231 167 194 c 0
 167 158 135 153 135 130 c 0
 135 109 161 73 228 54 c 0
 242 50 252 47 260 47 c 0
 276 47 280 59 282 94 c 2
 294 276 l 2
 295 295 297 310 297 321 c 0
 297 342 290 352 258 361 c 0
 164 387 80 429 80 555 c 0
 80 695 199 760 320 760 c 0
 329 760 327 775 327 782 c 2
 329 824 l 2
 330 838 336 835 350 835 c 0
170 585 m 0
 170 522 209 492 264 473 c 0
 278 468 287 465 293 465 c 0
 306 465 307 477 309 510 c 2
 319 660 l 2
 319 666 319 671 319 675 c 0
 319 699 315 708 300 708 c 0
 292 708 280 705 265 701 c 0
 202 683 170 638 170 585 c 0
520 190 m 0
 520 264 474 298 412 320 c 0
 395 326 380 335 369 335 c 0
 359 335 351 327 350 304 c 2
 337 102 l 2
 336 92 336 83 336 76 c 0
 336 52 341 42 359 42 c 0
 368 42 380 44 396 48 c 0
 484 69 520 133 520 190 c 0
EndSplineSet
EndChar

StartChar: numbersign
Encoding: 35 35 81
Width: 660
Flags: HMW
LayerCount: 2
Fore
SplineSet
254 805 m 0
 278 805 284 801 284 790 c 0
 284 783 282 773 280 760 c 2
 258 576 l 2
 257 566 256 559 256 554 c 0
 256 541 262 540 290 540 c 2
 394 540 l 2
 432 540 429 544 433 577 c 2
 458 784 l 2
 461 804 461 805 480 805 c 0
 482 805 484 805 486 805 c 0
 508 805 515 796 515 784 c 0
 515 772 509 757 507 740 c 2
 490 593 l 2
 488 578 485 566 485 558 c 0
 485 546 492 540 520 540 c 2
 646 540 l 2
 668 540 670 538 670 522 c 0
 670 518 670 514 670 509 c 0
 670 488 665 484 652 484 c 0
 646 484 639 485 630 485 c 2
 520 485 l 2
 467 485 476 468 471 423 c 2
 457 304 l 2
 457 300 456 297 456 294 c 0
 456 281 461 279 472 279 c 0
 478 279 486 280 496 280 c 2
 602 280 l 2
 611 280 617 281 623 281 c 0
 634 281 640 278 640 260 c 0
 640 228 636 225 615 225 c 0
 610 225 604 225 596 225 c 2
 486 225 l 2
 441 225 446 216 442 178 c 2
 423 18 l 2
 420 -12 429 -55 392 -55 c 0
 367 -55 361 -51 361 -40 c 0
 361 -33 363 -25 365 -12 c 2
 388 190 l 2
 389 199 390 205 390 210 c 0
 390 224 383 225 358 225 c 0
 356 225 354 225 352 225 c 2
 254 225 l 2
 209 225 216 212 212 174 c 2
 189 -18 l 2
 185 -49 190 -55 154 -55 c 0
 136 -55 131 -52 131 -44 c 0
 131 -39 133 -32 134 -22 c 2
 156 166 l 2
 158 183 161 196 161 205 c 0
 161 219 154 225 122 225 c 2
 32 225 l 2
 22 225 14 224 8 224 c 0
 -5 224 -10 228 -10 250 c 0
 -10 277 -4 281 12 281 c 0
 19 281 28 280 38 280 c 2
 134 280 l 2
 179 280 171 296 175 334 c 2
 187 436 l 2
 188 449 190 458 190 465 c 0
 190 484 181 485 142 485 c 2
 54 485 l 2
 47 485 40 484 35 484 c 0
 25 484 20 487 20 504 c 0
 20 539 21 540 53 540 c 0
 55 540 56 540 58 540 c 2
 166 540 l 2
 212 540 203 566 207 604 c 6
 225 760 l 2
 228 787 221 805 254 805 c 0
386 485 m 2
 278 485 l 2
 272 485 267 485 263 485 c 0
 252 485 247 483 246 468 c 2
 227 310 l 2
 226 302 225 296 225 292 c 0
 225 282 230 280 252 280 c 2
 358 280 l 2
 406 280 400 289 405 330 c 2
 419 451 l 2
 420 460 421 466 421 471 c 0
 421 485 414 485 386 485 c 2
EndSplineSet
EndChar

StartChar: slash
Encoding: 47 47 82
Width: 520
Flags: HMW
LayerCount: 2
Fore
SplineSet
443 780 m 4
 467 780 475 773 475 763 c 0
 475 748 458 725 450 705 c 2
 131 -96 l 2
 117 -132 121 -150 68 -150 c 0
 50 -150 44 -145 44 -137 c 0
 44 -126 57 -109 63 -93 c 2
 393 723 l 2
 404 750 402 780 443 780 c 4
EndSplineSet
EndChar

StartChar: percent
Encoding: 37 37 83
Width: 1000
Flags: HMW
LayerCount: 2
Fore
SplineSet
675 210 m 0
 675 108 691 40 765 40 c 0
 839 40 855 108 855 210 c 0
 855 312 839 380 765 380 c 0
 691 380 675 312 675 210 c 0
565 210 m 0
 565 353 652 430 765 430 c 0
 878 430 965 353 965 210 c 0
 965 67 858 -10 765 -10 c 0
 652 -10 565 67 565 210 c 0
728 750 m 0
 748 750 755 745 755 737 c 0
 755 726 740 709 730 693 c 2
 341 61 l 2
 324 33 320 0 274 0 c 4
 253 0 245 5 245 13 c 0
 245 24 260 40 270 57 c 2
 667 695 l 2
 682 720 686 750 728 750 c 0
145 540 m 0
 145 438 161 370 235 370 c 0
 309 370 325 438 325 540 c 0
 325 642 309 710 235 710 c 0
 161 710 145 642 145 540 c 0
35 540 m 0
 35 683 122 760 235 760 c 0
 348 760 435 683 435 540 c 0
 435 397 328 320 235 320 c 0
 122 320 35 397 35 540 c 0
EndSplineSet
EndChar

StartChar: hyphen
Encoding: 45 45 85
Width: 460
Flags: HMW
LayerCount: 2
Fore
SplineSet
99 415 m 2
 374 415 l 2
 390 415 400 414 400 396 c 2
 400 382 l 6
 400 361 390 360 371 360 c 2
 91 360 l 2
 89 360 88 360 86 360 c 0
 61 360 60 361 60 390 c 0
 60 412 65 415 79 415 c 0
 84 415 91 415 99 415 c 2
EndSplineSet
EndChar

StartChar: plus
Encoding: 43 43 87
Width: 530
Flags: HMW
LayerCount: 2
Fore
SplineSet
337 343 m 6
 431 343 l 2
 435 343 438 343 441 343 c 0
 468 343 470 341 470 308 c 0
 470 290 460 286 447 286 c 0
 438 286 428 288 417 288 c 2
 331 288 l 2
 293 288 292 286 292 251 c 0
 292 249 292 248 292 246 c 2
 292 148 l 2
 292 143 292 139 292 135 c 0
 292 112 290 110 259 110 c 0
 240 110 237 118 237 130 c 0
 237 137 238 146 238 156 c 2
 238 250 l 2
 238 285 235 288 210 288 c 0
 205 288 199 288 193 288 c 2
 95 288 l 2
 62 288 60 291 60 315 c 0
 60 319 60 323 60 328 c 0
 60 341 66 344 76 344 c 0
 82 344 89 343 97 343 c 2
 195 343 l 2
 203 343 209 343 214 343 c 0
 234 343 238 346 238 376 c 2
 238 492 l 2
 238 520 239 520 267 520 c 0
 289 520 293 513 293 500 c 0
 293 494 292 486 292 476 c 2
 292 390 l 2
 292 388 292 386 292 384 c 0
 292 343 293 343 337 343 c 6
EndSplineSet
EndChar

StartChar: less
Encoding: 60 60 89
Width: 560
Flags: HMW
LayerCount: 2
Fore
SplineSet
190 360 m 6
 452 259 l 2
 480 248 500 251 500 210 c 0
 500 187 494 180 484 180 c 0
 471 180 451 194 432 201 c 2
 100 330 l 2
 80 338 60 335 60 365 c 2
 60 410 l 2
 60 440 83 439 104 447 c 2
 448 580 l 2
 462 585 478 597 488 597 c 0
 495 597 500 591 500 574 c 0
 500 524 482 528 448 515 c 2
 176 410 l 2
 145 398 132 391 132 386 c 0
 132 379 155 374 190 360 c 6
EndSplineSet
EndChar

StartChar: backslash
Encoding: 92 92 91
Width: 520
Flags: HMW
LayerCount: 2
Fore
SplineSet
133 708 m 6
 451 -78 l 2
 460 -101 475 -120 475 -133 c 0
 475 -144 464 -150 431 -150 c 0
 396 -150 391 -99 381 -75 c 2
 54 744 l 2
 49 756 43 765 43 771 c 0
 43 777 48 780 65 780 c 0
 122 780 118 746 133 708 c 6
EndSplineSet
EndChar

StartChar: bracketleft
Encoding: 91 91 92
Width: 325
Flags: HMW
LayerCount: 2
Fore
SplineSet
145 780 m 6
 262 780 l 2
 267 780 271 780 275 780 c 0
 293 780 295 778 295 753 c 0
 295 726 294 725 270 725 c 0
 268 725 267 725 265 725 c 2
 181 725 l 2
 149 725 143 713 143 693 c 0
 143 682 145 668 145 651 c 2
 145 -21 l 2
 145 -37 143 -52 143 -64 c 0
 143 -83 148 -95 178 -95 c 2
 253 -95 l 2
 259 -95 265 -95 270 -95 c 0
 292 -95 295 -98 295 -129 c 0
 295 -148 284 -152 269 -152 c 0
 259 -152 247 -150 235 -150 c 2
 100 -150 l 2
 60 -150 52 -134 52 -107 c 0
 52 -91 55 -70 55 -48 c 2
 55 725 l 5
 56 774 76 782 104 782 c 0
 116 782 130 780 145 780 c 6
EndSplineSet
EndChar

StartChar: braceleft
Encoding: 123 123 93
Width: 272
VWidth: 1155
Flags: HMW
LayerCount: 2
Fore
SplineSet
178 -146 m 4
 84 -132 55 -84 55 -10 c 0
 55 127 115 172 115 235 c 4
 115 314 55 251 55 321 c 4
 55 346 64 342 80 348 c 0
 100 355 115 367 115 396 c 0
 115 459 55 504 55 641 c 0
 55 720 88 768 196 778 c 0
 205 779 215 781 223 781 c 0
 234 781 242 777 242 762 c 0
 242 726 233 736 206 730 c 0
 168 722 148 696 148 647 c 0
 148 571 182 531 182 431 c 0
 182 401 175 377 163 357 c 0
 144 327 133 323 133 317 c 0
 133 312 141 304 159 279 c 0
 174 259 182 233 182 200 c 0
 182 100 148 60 148 -16 c 0
 148 -57 160 -87 188 -94 c 4
 230 -104 242 -91 242 -126 c 4
 242 -144 226 -149 207 -149 c 0
 197 -149 187 -147 178 -146 c 4
EndSplineSet
EndChar

StartChar: bar
Encoding: 124 124 96
Width: 300
VWidth: 1155
Flags: HMW
LayerCount: 2
Fore
SplineSet
138 780 m 4
 189 780 197 764 197 733 c 0
 197 717 195 697 195 673 c 2
 195 -188 l 2
 195 -193 195 -199 195 -203 c 0
 195 -248 193 -250 138 -250 c 0
 108 -250 103 -237 103 -217 c 0
 103 -205 105 -190 105 -173 c 2
 105 694 l 2
 105 712 102 729 102 744 c 0
 102 765 108 780 138 780 c 4
EndSplineSet
EndChar

StartChar: cent
Encoding: 162 162 98
Width: 548
VWidth: 1155
Flags: HMW
LayerCount: 2
Fore
SplineSet
321 615 m 5
 330 615 337 615 343 615 c 0
 354 615 359 613 359 601 c 0
 359 598 359 595 358 591 c 0
 355 567 349 552 349 542 c 0
 349 530 357 524 386 515 c 4
 454 495 490 440 490 381 c 0
 490 333 455 315 426 315 c 0
 399 315 369 336 369 373 c 0
 369 409 401 414 401 437 c 0
 401 453 386 466 363 474 c 0
 357 476 353 477 350 477 c 0
 337 477 339 464 336 443 c 2
 287 97 l 2
 285 86 279 69 279 56 c 0
 279 46 283 39 294 39 c 0
 367 39 415 80 443 144 c 0
 452 164 448 173 479 173 c 0
 499 173 505 172 505 166 c 0
 505 162 503 156 499 146 c 0
 465 53 403 -10 292 -10 c 0
 265 -10 270 -20 267 -43 c 0
 263 -71 269 -85 235 -85 c 1
 213 -85 208 -79 208 -69 c 0
 208 -62 211 -53 212 -43 c 0
 213 -32 214 -24 214 -18 c 0
 214 1 206 1 179 12 c 0
 87 53 45 146 45 250 c 0
 45 391 112 508 239 525 c 4
 301 533 293 522 299 567 c 1
 307 582 294 615 316 615 c 0
 317 615 319 615 321 615 c 5
232 99 m 2
 281 443 l 2
 282 452 283 458 283 464 c 0
 283 475 280 480 273 480 c 0
 267 480 258 477 245 471 c 0
 177 439 146 353 146 270 c 0
 146 203 157 142 184 99 c 0
 196 80 207 64 216 64 c 0
 223 64 228 74 232 99 c 2
EndSplineSet
EndChar

StartChar: sterling
Encoding: 163 163 99
Width: 530
VWidth: 1155
Flags: HMW
LayerCount: 2
Fore
SplineSet
548 123 m 0
 536 5 462 -30 380 -30 c 0
 243 -30 198 30 135 30 c 0
 90 30 83 -20 64 -20 c 2
 40 -20 l 2
 22 -20 17 -8 17 7 c 0
 17 20 21 34 23 45 c 0
 46 145 147 208 147 261 c 0
 147 322 116 333 70 333 c 0
 44 333 14 330 -18 330 c 0
 -35 330 -38 335 -38 346 c 0
 -38 351 -37 358 -37 365 c 0
 -37 384 -35 385 -22 385 c 0
 -20 385 -17 385 -14 385 c 2
 66 385 l 2
 99 385 110 387 110 395 c 0
 110 402 103 413 95 431 c 0
 79 467 66 504 66 550 c 0
 66 690 171 760 332 760 c 0
 484 760 558 688 558 606 c 0
 558 558 523 540 494 540 c 0
 467 540 437 561 437 598 c 0
 437 634 469 639 469 662 c 0
 469 689 406 718 332 718 c 0
 213 718 177 634 177 560 c 0
 177 510 191 469 205 431 c 0
 218 396 213 385 262 385 c 2
 380 385 l 2
 386 385 391 385 395 385 c 0
 410 385 413 383 413 359 c 0
 413 332 410 330 391 330 c 0
 387 330 383 330 378 330 c 2
 282 330 l 2
 275 330 265 331 255 331 c 0
 243 331 233 329 233 320 c 0
 233 220 187 183 142 139 c 0
 122 119 94 89 94 79 c 0
 94 77 95 76 98 76 c 0
 103 76 112 80 127 88 c 4
 138 94 155 97 170 97 c 0
 270 97 310 63 386 63 c 0
 430 63 470 79 490 110 c 0
 500 125 495 157 518 157 c 0
 543 157 549 155 549 140 c 0
 549 136 549 130 548 123 c 0
EndSplineSet
EndChar

StartChar: yen
Encoding: 165 165 100
Width: 785
Flags: HMW
LayerCount: 2
Fore
SplineSet
28 750 m 2
 282 750 l 2
 290 750 300 751 309 751 c 0
 321 751 330 749 330 737 c 0
 330 727 331 719 331 713 c 0
 331 701 327 695 306 695 c 2
 242 695 l 2
 220 695 213 692 213 686 c 0
 213 678 228 665 237 651 c 2
 388 425 l 2
 402 404 409 394 415 394 c 0
 422 394 428 406 442 427 c 2
 604 675 l 2
 609 683 612 688 612 691 c 0
 612 695 607 695 597 695 c 0
 592 695 587 695 580 695 c 2
 524 695 l 2
 515 695 509 694 503 694 c 0
 491 694 485 698 485 719 c 0
 485 726 485 732 485 736 c 0
 485 746 487 750 504 750 c 2
 742 750 l 2
 751 750 759 751 765 751 c 0
 780 751 785 747 785 723 c 0
 785 721 785 720 785 718 c 0
 785 696 784 695 758 695 c 2
 716 695 l 2
 676 695 675 678 660 655 c 2
 499 407 l 0
 469 361 l 2
 467 358 467 357 467 355 c 0
 467 350 473 348 483 348 c 0
 495 348 510 350 521 350 c 2
 599 350 l 0
 615 350 625 349 625 331 c 2
 625 317 l 2
 625 296 615 295 596 295 c 0
 492 295 l 2
 482 295 474 296 468 296 c 0
 455 296 450 292 450 270 c 2
 450 218 l 2
 450 202 454 199 463 199 c 0
 468 199 474 200 481 200 c 2
 599 200 l 0
 615 200 625 199 625 181 c 2
 625 167 l 2
 625 146 615 145 596 145 c 0
 583 145 550 147 519 147 c 0
 484 147 450 144 450 131 c 2
 450 99 l 2
 450 97 450 96 450 94 c 0
 450 56 451 55 492 55 c 2
 542 55 l 2
 567 55 570 51 570 35 c 0
 570 30 570 24 570 17 c 0
 570 2 563 -1 553 -1 c 0
 546 -1 539 0 530 0 c 2
 292 0 l 2
 282 0 274 0 268 -0 c 0
 250 0 245 3 245 33 c 0
 245 55 246 55 268 55 c 2
 314 55 l 2
 320 55 325 55 330 55 c 0
 351 55 355 58 355 89 c 2
 355 124 l 2
 355 145 354 145 333 145 c 2
 216 145 l 2
 214 145 213 145 211 145 c 0
 186 145 185 146 185 175 c 0
 185 197 190 200 204 200 c 0
 209 200 216 200 224 200 c 2
 296 200 l 1
 302 201 311 200 324 200 c 0
 354 200 355 201 355 228 c 0
 355 230 355 231 355 233 c 2
 355 273 l 2
 355 293 352 295 338 295 c 0
 335 295 331 295 326 295 c 2
 216 295 l 2
 214 295 213 295 211 295 c 0
 186 295 185 296 185 325 c 0
 185 347 190 350 204 350 c 0
 209 350 216 350 224 350 c 2
 296 350 l 5
 302 351 311 350 324 350 c 0
 325 351 l 0
 325 356 307 382 303 387 c 2
 118 663 l 2
 103 685 103 695 64 695 c 2
 34 695 l 2
 32 695 31 695 29 695 c 0
 1 695 0 696 0 727 c 0
 0 748 2 750 16 750 c 0
 19 750 23 750 28 750 c 2
EndSplineSet
EndChar

StartChar: section
Encoding: 167 167 101
Width: 534
VWidth: 1155
Flags: HMW
LayerCount: 2
Fore
SplineSet
357 658 m 0
 357 691 295 709 243 709 c 0
 180 709 125 681 125 634 c 0
 125 518 468 538 468 375 c 0
 468 341 457 309 435 281 c 0
 419 261 410 256 410 249 c 0
 410 243 416 237 431 221 c 0
 449 201 460 175 460 142 c 0
 460 38 350 -10 245 -10 c 0
 137 -10 21 32 21 148 c 0
 21 196 56 224 85 224 c 0
 112 224 142 203 142 166 c 0
 142 130 110 125 110 102 c 0
 110 69 192 41 244 41 c 0
 307 41 382 69 382 116 c 0
 382 232 29 212 29 375 c 0
 29 424 45 453 72 477 c 0
 89 492 96 499 96 504 c 0
 96 510 87 516 71 535 c 4
 56 554 47 578 47 608 c 0
 47 712 137 760 232 760 c 0
 340 760 446 718 446 612 c 0
 446 564 411 536 382 536 c 0
 355 536 325 557 325 594 c 0
 325 630 357 635 357 658 c 0
125 407 m 4
 125 337 219 319 308 289 c 0
 326 283 340 276 350 276 c 0
 361 276 368 283 376 305 c 0
 380 317 382 330 382 343 c 0
 382 414 284 432 194 463 c 0
 178 468 166 472 156 472 c 0
 135 472 125 457 125 407 c 4
EndSplineSet
EndChar

StartChar: asciitilde
Encoding: 126 126 104
Width: 688
VWidth: 1155
Flags: HMW
LayerCount: 2
Fore
SplineSet
243 437 m 0
 209 437 186 428 173 409 c 0
 156 385 172 343 128 343 c 0
 105 343 99 349 99 361 c 0
 99 368 102 378 104 389 c 0
 120 472 181 510 249 510 c 0
 369 510 369 416 445 416 c 0
 494 416 518 435 527 473 c 0
 533 499 523 510 558 510 c 0
 581 510 588 500 588 486 c 0
 588 473 582 457 578 443 c 4
 556 375 501 343 439 343 c 0
 302 343 306 437 243 437 c 0
EndSplineSet
EndChar

StartChar: copyright
Encoding: 169 169 105
Width: 870
Flags: HMW
LayerCount: 2
Fore
SplineSet
40 375 m 4
 40 588 218 760 435 760 c 4
 652 760 830 588 830 375 c 4
 830 162 652 -10 435 -10 c 4
 218 -10 40 162 40 375 c 4
100 375 m 4
 100 190 250 39 435 39 c 4
 620 39 770 190 770 375 c 4
 770 560 620 711 435 711 c 4
 250 711 100 560 100 375 c 4
EndSplineSet
Refer: 14 67 N 0.6 0 0 0.6 182 150 2
EndChar

StartChar: registered
Encoding: 174 174 106
Width: 870
Flags: HMW
LayerCount: 2
Fore
SplineSet
40 375 m 0
 40 588 218 760 435 760 c 0
 652 760 830 588 830 375 c 0
 830 162 652 -10 435 -10 c 0
 218 -10 40 162 40 375 c 0
100 375 m 0
 100 190 250 39 435 39 c 0
 620 39 770 190 770 375 c 0
 770 560 620 711 435 711 c 0
 250 711 100 560 100 375 c 0
EndSplineSet
Refer: 29 82 N 0.6 0 0 0.6 198 148 2
EndChar

StartChar: guillemotleft
Encoding: 171 171 108
Width: 695
Flags: HMW
LayerCount: 2
Fore
SplineSet
470 355 m 2
 624 225 l 2
 643 209 659 202 659 188 c 0
 659 182 656 176 650 167 c 0
 642 155 636 151 630 151 c 0
 620 151 611 162 594 174 c 2
 320 365 l 2
 310 372 305 371 305 389 c 0
 305 408 324 413 335 421 c 2
 609 616 l 6
 617 622 622 624 628 624 c 0
 635 624 642 619 649 609 c 0
 655 600 658 593 658 587 c 0
 658 572 641 565 622 549 c 2
 456 409 l 2
 444 399 439 392 439 386 c 0
 439 377 452 370 470 355 c 2
195 350 m 2
 353 217 l 2
 367 205 380 199 380 188 c 0
 380 184 378 179 373 172 c 0
 363 157 357 151 351 151 c 0
 345 151 337 157 323 167 c 2
 89 330 l 2
 30 371 25 362 25 387 c 0
 25 416 25 400 105 456 c 2
 331 613 l 2
 342 621 348 625 353 625 c 0
 358 625 361 621 369 609 c 0
 376 599 379 592 379 586 c 0
 379 575 367 570 350 555 c 2
 213 440 l 2
 183 415 164 404 164 390 c 0
 164 380 173 369 195 350 c 2
EndSplineSet
EndChar

StartChar: mu
Encoding: 181 181 111
Width: 675
VWidth: 1155
Flags: HMW
LayerCount: 2
Fore
SplineSet
261 -143 m 0
 294 -143 317 -167 317 -201 c 0
 317 -236 284 -260 246 -260 c 0
 184 -260 120 -211 120 -122 c 2
 120 151 l 1
 120 321 l 1
 120 437 l 2
 120 442 120 446 120 449 c 0
 120 463 118 465 98 465 c 2
 70 465 l 2
 63 465 57 465 52 465 c 0
 35 465 30 468 30 495 c 0
 30 517 37 521 50 521 c 0
 57 521 65 520 76 520 c 2
 166 520 l 2
 176 520 183 521 189 521 c 0
 205 521 210 517 210 491 c 2
 210 162 l 2
 210 88 239 37 305 37 c 0
 403 37 465 134 465 237 c 2
 465 417 l 2
 465 422 465 427 465 431 c 0
 465 463 463 465 422 465 c 0
 411 465 402 464 395 464 c 0
 381 464 375 468 375 491 c 0
 375 518 378 520 397 520 c 0
 401 520 405 520 410 520 c 2
 510 520 l 2
 552 520 555 517 555 485 c 0
 555 480 555 474 555 467 c 2
 555 117 l 2
 555 103 553 92 553 82 c 0
 553 65 558 55 584 55 c 2
 618 55 l 2
 643 55 645 53 645 34 c 0
 645 31 645 28 645 25 c 0
 645 3 639 -1 626 -1 c 0
 620 -1 613 0 604 0 c 2
 512 0 l 2
 502 0 494 0 488 -0 c 0
 470 0 465 3 465 33 c 0
 465 56 467 75 467 85 c 0
 467 90 467 93 465 93 c 0
 462 93 457 87 448 73 c 0
 415 25 362 -10 282 -10 c 0
 256 -10 234 -8 215 -3 c 0
 197 2 185 11 178 11 c 0
 172 11 170 4 170 -22 c 6
 170 -119 l 2
 170 -156 194 -162 207 -162 c 0
 227 -162 226 -143 261 -143 c 0
EndSplineSet
EndChar

StartChar: asciicircum
Encoding: 94 94 113
Width: 545
Flags: HMW
LayerCount: 2
Fore
SplineSet
242 690 m 6
 118 587 l 2
 103 574 95 565 84 565 c 0
 78 565 71 568 62 573 c 0
 56 576 54 579 54 582 c 0
 54 589 66 596 74 604 c 2
 214 744 l 2
 231 761 234 770 270 770 c 0
 314 770 319 756 340 735 c 2
 462 613 l 2
 473 602 490 593 490 583 c 0
 490 579 487 575 480 571 c 0
 473 567 467 565 462 565 c 0
 445 565 433 582 416 596 c 2
 306 687 l 2
 290 701 282 708 273 708 c 0
 265 708 257 702 242 690 c 6
EndSplineSet
EndChar

StartChar: degree
Encoding: 176 176 115
Width: 320
Flags: HMW
LayerCount: 2
Fore
SplineSet
40 680 m 0
 40 746 94 800 160 800 c 0
 226 800 280 746 280 680 c 0
 280 614 226 560 160 560 c 0
 94 560 40 614 40 680 c 0
95 680 m 0
 95 643 123 615 160 615 c 4
 197 615 225 643 225 680 c 0
 225 717 197 745 160 745 c 4
 123 745 95 717 95 680 c 0
EndSplineSet
EndChar

StartChar: onequarter
Encoding: 188 188 119
Width: 1000
Flags: HMW
LayerCount: 2
Fore
SplineSet
722 750 m 4
 746 750 754 744 754 735 c 0
 754 723 738 705 726 686 c 6
 329 41 l 6
 314 17 315 0 274 0 c 4
 251 0 243 6 243 15 c 0
 243 31 271 58 283 77 c 6
 669 698 l 6
 682 719 687 750 720 750 c 0
 721 750 721 750 722 750 c 4
EndSplineSet
Refer: 6 52 N 0.6 0 0 0.6 535 32 2
Refer: 3 49 N 0.6 0 0 0.6 107 456 2
EndChar

StartChar: onehalf
Encoding: 189 189 120
Width: 1000
Flags: HMW
LayerCount: 2
Fore
SplineSet
722 750 m 4
 746 750 754 744 754 735 c 0
 754 723 738 705 726 686 c 6
 329 41 l 6
 314 17 315 0 274 0 c 4
 251 0 243 6 243 15 c 0
 243 31 271 58 283 77 c 6
 669 698 l 6
 682 719 687 750 720 750 c 0
 721 750 721 750 722 750 c 4
EndSplineSet
Refer: 4 50 N 0.6 0 0 0.6 576 17 2
Refer: 3 49 N 0.6 0 0 0.6 107 456 2
EndChar

StartChar: threequarters
Encoding: 190 190 121
Width: 1000
Flags: HMW
LayerCount: 2
Fore
SplineSet
722 750 m 4
 746 750 754 744 754 735 c 0
 754 723 738 705 726 686 c 6
 329 41 l 6
 314 17 315 0 274 0 c 4
 251 0 243 6 243 15 c 0
 243 31 271 58 283 77 c 6
 669 698 l 6
 682 719 687 750 720 750 c 0
 721 750 721 750 722 750 c 4
EndSplineSet
Refer: 6 52 N 0.6 0 0 0.6 535 32 2
Refer: 5 51 N 0.6 0 0 0.6 65 457 2
EndChar

StartChar: grave
Encoding: 96 96 123
Width: 395
Flags: HMW
LayerCount: 2
Fore
SplineSet
180 720 m 2
 161 721 145 736 145 755 c 0
 145 771 157 789 179 789 c 0
 182 789 186 789 190 788 c 2
 404 736 l 2
 415 733 428 734 428 724 c 0
 428 709 422 710 408 711 c 6
 180 720 l 2
EndSplineSet
EndChar

StartChar: acute
Encoding: 180 180 124
Width: 395
Flags: HMW
LayerCount: 2
Fore
SplineSet
195 720 m 2
 -24 711 l 2
 -30 711 -35 710 -40 710 c 0
 -46 710 -50 711 -52 718 c 0
 -53 720 -53 722 -53 724 c 0
 -53 736 -38 733 -24 737 c 6
 185 788 l 2
 189 789 193 789 196 789 c 0
 218 789 230 771 230 755 c 0
 230 736 214 721 195 720 c 2
EndSplineSet
EndChar

StartChar: cedilla
Encoding: 184 184 128
Width: 550
Flags: HMW
LayerCount: 2
Fore
SplineSet
218 -200 m 4
 301 -200 339 -171 339 -150 c 0
 339 -121 303 -104 212 -100 c 0
 186 -99 174 -100 174 -94 c 0
 174 -91 179 -85 187 -74 c 2
 277 41 l 1
 347 41 l 1
 287 -35 l 2
 278 -47 273 -53 273 -57 c 0
 273 -64 288 -64 314 -70 c 0
 368 -83 400 -107 400 -140 c 0
 400 -186 360 -240 221 -241 c 0
 213 -241 206 -242 200 -242 c 0
 188 -242 181 -239 181 -221 c 0
 181 -202 186 -198 195 -198 c 0
 201 -198 208 -200 218 -200 c 4
EndSplineSet
EndChar

StartChar: AE
Encoding: 198 198 526
Width: 1197
Flags: HMW
LayerCount: 2
Fore
SplineSet
290 275 m 1
 640 275 l 1
 640 220 l 1
 290 220 l 1
 290 275 l 1
470 55 m 1
 800 55 l 1
 800 0 l 1
 470 0 l 1
 470 55 l 1
0 55 m 1
 280 55 l 1
 280 0 l 1
 0 0 l 1
 0 55 l 1
596 750 m 1
 665 750 l 1
 149 0 l 1
 75 0 l 1
 596 750 l 1
EndSplineSet
Refer: 16 69 N 1 0 0 1 460 0 2
EndChar

StartChar: ae
Encoding: 230 230 529
Width: 736
VWidth: 1155
Flags: HMW
LayerCount: 2
Fore
SplineSet
361 250 m 1
 462 270 l 1
 462 146 497 39 606 39 c 0
 689 39 743 93 768 173 c 1
 819 173 l 1
 793 66 725 -10 594 -10 c 0
 443 -10 361 110 361 250 c 1
438 304 m 1
 762 304 l 1
 762 261 l 1
 438 261 l 1
 438 304 l 1
807 261 m 1
 762 261 l 1
 762 290 l 1
 807 290 l 1
 807 261 l 1
818 261 m 1
 726 261 l 1
 726 364 700 486 601 486 c 0
 492 486 462 374 462 270 c 1
 361 250 l 1
 361 410 440 530 601 530 c 0
 770 530 818 400 818 261 c 1
299 299 m 1
 299 261 l 1
 183 261 142 215 142 138 c 0
 142 71 190 46 240 46 c 0
 308 46 361 79 361 250 c 1
 395 179 l 1
 395 55 326 -10 195 -10 c 4
 106 -10 40 39 40 123 c 0
 40 217 127 299 299 299 c 1
451 367 m 1
 451 271 l 1
 361 273 l 1
 361 377 l 1
 451 367 l 1
70 403 m 1
 70 480 162 530 283 530 c 0
 423 530 451 448 451 367 c 1
 361 367 l 1
 361 434 338 484 258 484 c 0
 204 484 156 465 156 445 c 1
 70 403 l 1
299 299 m 1
 413 299 l 1
 413 261 l 1
 299 261 l 1
 299 299 l 1
184 393 m 0
 184 359 163 340 129 340 c 0
 98 340 70 359 70 403 c 1
 156 445 l 1
 156 427 184 432 184 393 c 0
EndSplineSet
EndChar

StartChar: perthousand
Encoding: 8240 8240 537
Width: 1470
Flags: HMW
LayerCount: 2
Fore
SplineSet
1145 210 m 0
 1145 108 1161 40 1235 40 c 0
 1309 40 1325 108 1325 210 c 0
 1325 312 1309 380 1235 380 c 0
 1161 380 1145 312 1145 210 c 0
1035 210 m 0
 1035 353 1122 430 1235 430 c 0
 1348 430 1435 353 1435 210 c 0
 1435 67 1328 -10 1235 -10 c 0
 1122 -10 1035 67 1035 210 c 0
675 210 m 0
 675 108 691 40 765 40 c 0
 839 40 855 108 855 210 c 0
 855 312 839 380 765 380 c 0
 691 380 675 312 675 210 c 0
565 210 m 0
 565 353 652 430 765 430 c 0
 878 430 965 353 965 210 c 0
 965 67 858 -10 765 -10 c 0
 652 -10 565 67 565 210 c 0
729 750 m 4
 751 750 758 745 758 737 c 0
 758 724 737 704 726 687 c 6
 352 78 l 6
 311 11 324 0 273 0 c 4
 249 0 240 4 240 12 c 0
 240 26 269 53 295 96 c 6
 675 708 l 6
 689 731 690 750 729 750 c 4
145 540 m 0
 145 438 161 370 235 370 c 0
 309 370 325 438 325 540 c 0
 325 642 309 710 235 710 c 0
 161 710 145 642 145 540 c 0
35 540 m 0
 35 683 122 760 235 760 c 0
 348 760 435 683 435 540 c 0
 435 397 328 320 235 320 c 0
 122 320 35 397 35 540 c 0
EndSplineSet
EndChar

StartChar: uni2031
Encoding: 8241 8241 538
Width: 1950
Flags: HMW
LayerCount: 2
Fore
SplineSet
729 750 m 4
 751 750 758 745 758 737 c 0
 758 724 737 704 726 687 c 6
 352 78 l 6
 311 11 324 0 273 0 c 4
 249 0 240 4 240 12 c 0
 240 26 269 53 295 96 c 6
 675 708 l 6
 689 731 690 750 729 750 c 4
1625 210 m 0
 1625 108 1641 40 1715 40 c 0
 1789 40 1805 108 1805 210 c 0
 1805 312 1789 380 1715 380 c 0
 1641 380 1625 312 1625 210 c 0
1515 210 m 0
 1515 353 1602 430 1715 430 c 0
 1828 430 1915 353 1915 210 c 0
 1915 67 1808 -10 1715 -10 c 0
 1602 -10 1515 67 1515 210 c 0
1145 210 m 0
 1145 108 1161 40 1235 40 c 0
 1309 40 1325 108 1325 210 c 0
 1325 312 1309 380 1235 380 c 0
 1161 380 1145 312 1145 210 c 0
1035 210 m 0
 1035 353 1122 430 1235 430 c 0
 1348 430 1435 353 1435 210 c 0
 1435 67 1328 -10 1235 -10 c 0
 1122 -10 1035 67 1035 210 c 0
675 210 m 0
 675 108 691 40 765 40 c 0
 839 40 855 108 855 210 c 0
 855 312 839 380 765 380 c 0
 691 380 675 312 675 210 c 0
565 210 m 0
 565 353 652 430 765 430 c 0
 878 430 965 353 965 210 c 0
 965 67 858 -10 765 -10 c 0
 652 -10 565 67 565 210 c 0
145 540 m 0
 145 438 161 370 235 370 c 0
 309 370 325 438 325 540 c 0
 325 642 309 710 235 710 c 0
 161 710 145 642 145 540 c 0
35 540 m 0
 35 683 122 760 235 760 c 0
 348 760 435 683 435 540 c 0
 435 397 328 320 235 320 c 0
 122 320 35 397 35 540 c 0
EndSplineSet
EndChar

StartChar: uniFB00
Encoding: 64256 64256 542
Width: 750
VWidth: 1155
Flags: HMW
LayerCount: 2
Fore
SplineSet
210 406 m 2
 210 108 l 2
 210 96 209 86 209 79 c 0
 209 61 214 55 244 55 c 2
 300 55 l 2
 302 55 303 55 305 55 c 0
 329 55 330 54 330 26 c 0
 330 3 324 -1 310 -1 c 0
 304 -1 296 0 286 0 c 2
 66 0 l 2
 30 0 30 0 30 36 c 0
 30 53 37 56 48 56 c 0
 55 56 63 55 72 55 c 0
 116 55 120 60 120 91 c 0
 120 98 120 106 120 116 c 2
 120 432 l 2
 120 462 115 465 95 465 c 0
 90 465 84 465 76 465 c 0
 68 465 62 465 56 465 c 0
 39 465 30 468 30 490 c 4
 30 517 33 520 53 520 c 0
 60 520 69 520 80 520 c 4
 86 520 91 520 96 520 c 0
 116 520 120 523 120 552 c 0
 120 683 207 770 337 770 c 0
 384 770 425 759 454 740 c 0
 479 724 486 716 491 716 c 0
 497 716 501 727 524 750 c 0
 557 783 605 800 667 800 c 0
 768 800 835 756 835 699 c 0
 835 656 811 633 776 633 c 0
 741 633 718 653 718 681 c 0
 718 711 739 718 739 738 c 0
 739 750 721 765 679 765 c 0
 589 765 560 697 560 570 c 2
 560 544 l 2
 560 523 564 520 577 520 c 0
 582 520 588 520 596 520 c 2
 656 520 l 2
 666 520 674 521 680 521 c 0
 694 521 700 517 700 494 c 0
 700 467 698 465 679 465 c 0
 675 465 671 465 666 465 c 2
 582 465 l 2
 562 465 559 458 559 446 c 0
 559 439 560 430 560 420 c 2
 560 102 l 2
 560 97 560 92 560 88 c 0
 560 57 562 55 602 55 c 2
 644 55 l 2
 652 55 659 56 664 56 c 0
 675 56 680 53 680 34 c 0
 680 2 678 0 652 -0 c 0
 649 0 646 0 642 0 c 2
 420 0 l 2
 411 0 404 -1 398 -1 c 0
 385 -1 380 3 380 24 c 0
 380 26 380 27 380 29 c 0
 380 54 381 55 410 55 c 0
 412 55 414 55 416 55 c 0
 470 55 470 56 470 114 c 2
 470 418 l 2
 470 463 467 465 432 465 c 0
 428 465 423 465 418 465 c 2
 262 465 l 2
 213 465 210 461 210 424 c 0
 210 419 210 413 210 406 c 2
240 520 m 2
 444 520 l 2
 470 520 470 520 470 546 c 0
 470 559 471 569 471 576 c 0
 471 589 467 593 446 593 c 0
 411 593 388 613 388 641 c 0
 388 671 409 678 409 698 c 0
 409 710 381 725 339 725 c 0
 249 725 210 657 210 530 c 0
 210 521 215 519 222 519 c 0
 227 519 234 520 240 520 c 2
EndSplineSet
LCarets2: 1 0
Ligature2: "Not your mama's contextual ligatures" f f
EndChar

StartChar: uniFB01
Encoding: 64257 64257 543
Width: 645
VWidth: 1155
Flags: HMW
LayerCount: 2
Fore
SplineSet
210 419 m 2
 210 95 l 2
 210 86 209 78 209 72 c 0
 209 61 212 55 230 55 c 2
 308 55 l 2
 329 55 330 54 330 36 c 0
 330 34 330 33 330 31 c 0
 330 3 323 -1 306 -1 c 0
 299 -1 291 0 280 0 c 2
 66 0 l 2
 63 0 60 0 57 -0 c 0
 32 0 30 2 30 33 c 0
 30 53 36 56 49 56 c 0
 56 56 64 55 74 55 c 0
 79 55 84 55 88 55 c 0
 117 55 120 57 120 95 c 2
 120 409 l 2
 120 418 120 426 120 433 c 0
 120 460 116 465 76 465 c 0
 66 465 57 464 50 464 c 0
 38 464 30 467 30 487 c 0
 30 517 44 520 60 520 c 0
 65 520 71 520 76 520 c 4
 115 520 120 533 120 572 c 4
 120 692 187 790 337 790 c 0
 458 790 525 736 525 679 c 0
 525 636 501 613 466 613 c 0
 431 613 408 633 408 661 c 0
 408 691 429 698 429 718 c 0
 429 730 411 745 349 745 c 0
 249 745 210 687 210 550 c 0
 210 523 221 518 239 518 c 0
 250 518 263 520 278 520 c 2
 498 520 l 2
 506 520 512 520 517 520 c 0
 536 520 540 517 540 487 c 2
 540 99 l 2
 540 55 540 55 584 55 c 0
 592 55 598 55 603 55 c 0
 625 55 630 52 630 19 c 0
 630 2 623 -1 612 -1 c 0
 605 -1 596 0 586 0 c 2
 390 0 l 2
 388 0 387 0 385 -0 c 0
 361 0 360 1 360 29 c 0
 360 53 362 55 381 55 c 0
 384 55 387 55 390 55 c 2
 420 55 l 2
 447 55 452 66 452 83 c 0
 452 93 450 105 450 119 c 2
 450 415 l 2
 450 424 450 432 450 438 c 0
 450 460 447 465 412 465 c 2
 246 465 l 2
 213 465 210 461 210 439 c 0
 210 434 210 427 210 419 c 2
EndSplineSet
LCarets2: 1 0
Ligature2: "Not your mama's contextual ligatures" f i
EndChar

StartChar: uniFB02
Encoding: 64258 64258 544
Width: 680
VWidth: 1155
Flags: HMW
LayerCount: 2
Fore
SplineSet
210 424 m 6
 210 106 l 2
 210 98 210 92 210 86 c 0
 210 59 213 55 252 55 c 2
 288 55 l 2
 297 55 305 56 312 56 c 0
 323 56 330 53 330 38 c 0
 330 1 329 0 295 -0 c 0
 293 0 292 0 290 0 c 2
 62 0 l 2
 59 0 56 0 53 -0 c 0
 33 0 30 2 30 28 c 0
 30 53 32 55 51 55 c 0
 54 55 57 55 60 55 c 2
 96 55 l 2
 117 55 122 65 122 80 c 0
 122 89 120 100 120 112 c 2
 120 392 l 2
 120 403 122 419 122 433 c 0
 122 450 119 465 104 465 c 2
 62 465 l 2
 30 465 30 466 30 498 c 0
 30 518 32 520 45 520 c 0
 49 520 54 520 60 520 c 2
 90 520 l 2
 93 520 96 520 99 520 c 0
 118 520 120 522 120 546 c 2
 120 572 l 2
 120 703 197 790 347 790 c 0
 398 790 437 780 466 765 c 0
 485 755 492 748 500 748 c 0
 506 748 513 753 528 764 c 0
 542 775 557 794 566 794 c 0
 572 794 575 787 575 766 c 2
 575 134 l 2
 575 117 574 103 574 91 c 0
 574 67 580 55 620 55 c 0
 628 55 638 56 646 56 c 0
 657 56 665 54 665 42 c 0
 665 36 665 31 665 26 c 0
 665 4 662 0 630 0 c 2
 430 0 l 2
 423 0 418 0 413 -0 c 0
 400 0 395 2 395 24 c 0
 395 52 398 55 418 55 c 0
 422 55 428 55 434 55 c 0
 444 55 452 55 459 55 c 0
 480 55 485 59 485 92 c 2
 485 576 l 2
 485 586 486 594 486 600 c 0
 486 610 483 613 466 613 c 0
 431 613 408 633 408 661 c 0
 408 691 429 698 429 718 c 0
 429 730 411 745 349 745 c 0
 239 745 210 677 210 550 c 0
 210 544 210 540 210 536 c 0
 210 524 212 520 232 520 c 2
 326 520 l 2
 347 520 351 515 351 502 c 0
 351 496 350 489 350 480 c 0
 350 467 345 464 337 464 c 0
 332 464 327 465 320 465 c 2
 248 465 l 2
 211 465 210 463 210 429 c 0
 210 427 210 426 210 424 c 6
EndSplineSet
LCarets2: 1 0
Ligature2: "Not your mama's contextual ligatures" f l
EndChar

StartChar: uniFB03
Encoding: 64259 64259 545
Width: 995
VWidth: 1155
Flags: HMW
LayerCount: 2
Fore
SplineSet
560 426 m 2
 560 88 l 2
 560 59 567 54 585 54 c 0
 593 54 602 55 614 55 c 2
 658 55 l 2
 679 55 680 54 680 39 c 0
 680 37 680 33 680 30 c 0
 680 3 677 0 659 -0 c 0
 654 0 648 0 640 0 c 2
 408 0 l 2
 402 0 398 0 394 -0 c 0
 383 0 380 2 380 20 c 0
 380 54 382 55 413 55 c 0
 415 55 416 55 418 55 c 2
 456 55 l 2
 469 55 471 64 471 76 c 0
 471 84 470 94 470 102 c 2
 470 424 l 2
 470 426 470 427 470 429 c 0
 470 464 469 465 430 465 c 2
 244 465 l 2
 214 465 209 458 209 440 c 0
 209 433 210 425 210 414 c 2
 210 108 l 2
 210 97 209 88 209 81 c 0
 209 61 214 55 248 55 c 2
 280 55 l 2
 291 55 301 57 309 57 c 0
 322 57 330 53 330 34 c 0
 330 29 330 25 330 21 c 0
 330 2 328 0 302 0 c 2
 68 0 l 2
 61 0 55 0 50 -0 c 0
 34 0 30 3 30 28 c 0
 30 53 33 55 49 55 c 0
 53 55 58 55 64 55 c 2
 94 55 l 2
 117 55 121 63 121 77 c 0
 121 85 120 95 120 106 c 2
 120 420 l 2
 120 462 116 465 87 465 c 0
 81 465 74 465 66 465 c 0
 58 465 51 464 46 464 c 0
 35 464 30 467 30 486 c 0
 30 516 40 522 58 522 c 0
 68 522 81 520 96 520 c 0
 117 520 121 528 121 542 c 0
 121 550 120 561 120 572 c 1
 121 572 l 1
 129 692 214 770 337 770 c 0
 380 770 417 760 445 745 c 0
 483 724 487 707 495 707 c 0
 501 707 508 716 529 738 c 4
 567 777 624 800 697 800 c 0
 818 800 875 736 875 679 c 0
 875 636 851 613 816 613 c 0
 781 613 758 633 758 661 c 0
 758 691 779 698 779 718 c 0
 779 730 761 765 699 765 c 0
 589 765 560 677 560 550 c 0
 560 523 566 519 582 519 c 0
 589 519 599 520 610 520 c 2
 836 520 l 2
 848 520 859 522 868 522 c 0
 881 522 890 518 890 498 c 2
 890 88 l 2
 890 59 899 54 917 54 c 0
 926 54 938 55 952 55 c 0
 954 55 955 55 957 55 c 0
 979 55 980 54 980 28 c 0
 980 3 971 -1 956 -1 c 0
 948 -1 938 0 926 0 c 2
 744 0 l 2
 736 0 730 -1 725 -1 c 0
 714 -1 710 2 710 22 c 0
 710 51 717 56 735 56 c 0
 742 56 751 55 762 55 c 0
 796 55 802 69 802 91 c 0
 802 105 800 121 800 140 c 2
 800 404 l 2
 800 418 801 429 801 438 c 0
 801 457 796 465 764 465 c 2
 610 465 l 2
 601 465 593 465 587 465 c 0
 564 465 560 462 560 426 c 2
470 542 m 2
 470 562 l 2
 470 565 470 567 470 570 c 0
 470 587 466 589 461 589 c 0
 460 589 458 589 456 589 c 0
 453 589 449 590 446 593 c 1
 411 593 388 613 388 641 c 0
 388 671 409 678 409 698 c 0
 409 710 381 725 339 725 c 0
 249 725 210 657 210 530 c 0
 210 521 215 519 222 519 c 0
 227 519 232 520 238 520 c 2
 436 520 l 2
 444 520 450 519 455 519 c 0
 466 519 470 522 470 542 c 2
EndSplineSet
LCarets2: 2 0 0
Ligature2: "Not your mama's contextual ligatures" f f i
EndChar

StartChar: uniFB04
Encoding: 64260 64260 546
Width: 995
VWidth: 1155
Flags: HMW
LayerCount: 2
Fore
SplineSet
560 439 m 2
 560 89 l 2
 560 87 560 86 560 84 c 0
 560 56 561 55 593 55 c 2
 647 55 l 2
 650 55 653 55 656 55 c 0
 678 55 680 53 680 25 c 0
 680 3 676 0 662 -0 c 0
 657 0 652 0 645 0 c 2
 417 0 l 2
 412 0 408 0 404 -0 c 0
 383 0 380 2 380 31 c 0
 380 34 380 38 380 40 c 0
 380 54 381 55 401 55 c 2
 435 55 l 2
 467 55 470 57 470 80 c 0
 470 85 470 91 470 97 c 2
 470 411 l 2
 470 422 471 431 471 438 c 0
 471 458 466 465 433 465 c 2
 249 465 l 2
 210 465 210 464 210 425 c 2
 210 97 l 2
 210 57 213 55 244 55 c 0
 248 55 253 55 258 55 c 2
 300 55 l 2
 307 55 312 56 317 56 c 0
 325 56 330 53 330 39 c 0
 330 30 331 24 331 18 c 0
 331 6 327 0 306 0 c 2
 72 0 l 2
 62 0 54 -1 48 -1 c 0
 36 -1 30 3 30 23 c 0
 30 25 30 26 30 28 c 0
 30 54 31 55 60 55 c 2
 88 55 l 2
 117 55 120 60 120 78 c 0
 120 84 120 90 120 99 c 2
 120 419 l 2
 120 429 121 438 121 445 c 0
 121 457 118 465 99 465 c 2
 59 465 l 2
 32 465 30 467 30 486 c 0
 30 490 30 494 30 499 c 0
 30 518 39 522 53 522 c 0
 62 522 72 520 83 520 c 0
 116 520 120 526 120 547 c 0
 120 554 120 562 120 572 c 1
 121 572 l 1
 129 692 214 770 337 770 c 0
 387 770 429 757 458 737 c 0
 486 718 491 706 497 706 c 0
 502 706 507 716 530 739 c 4
 568 778 624 800 697 800 c 0
 740 800 776 792 803 779 c 0
 817 772 825 762 835 762 c 0
 839 762 842 763 847 767 c 2
 879 792 l 2
 882 794 885 796 887 796 c 0
 891 796 892 791 892 784 c 0
 892 775 890 764 890 753 c 2
 890 91 l 2
 890 88 890 85 890 82 c 0
 890 57 892 55 923 55 c 2
 947 55 l 2
 954 55 960 56 965 56 c 0
 974 56 980 53 980 39 c 0
 980 31 980 24 980 19 c 0
 980 4 977 0 953 0 c 2
 741 0 l 2
 710 0 710 0 710 31 c 0
 710 52 717 56 730 56 c 0
 737 56 746 55 757 55 c 0
 796 55 800 60 800 87 c 0
 800 94 800 102 800 111 c 2
 800 565 l 2
 800 616 791 607 769 631 c 0
 762 639 758 649 758 661 c 0
 758 691 779 698 779 718 c 0
 779 730 761 765 699 765 c 0
 589 765 560 677 560 550 c 0
 560 523 569 518 586 518 c 0
 595 518 607 520 621 520 c 2
 681 520 l 2
 684 520 687 520 690 520 c 0
 708 520 710 519 710 495 c 0
 710 466 708 465 682 465 c 0
 680 465 679 465 677 465 c 2
 593 465 l 2
 587 465 582 465 578 465 c 0
 563 465 560 463 560 439 c 2
470 545 m 2
 470 572 l 2
 470 574 470 576 470 578 c 0
 470 591 470 595 465 595 c 0
 462 595 456 593 446 593 c 0
 411 593 388 613 388 641 c 0
 388 671 409 678 409 698 c 0
 409 710 381 725 339 725 c 0
 249 725 210 657 210 530 c 0
 210 521 215 519 221 519 c 0
 225 519 230 520 235 520 c 2
 423 520 l 2
 434 520 443 519 450 519 c 0
 463 519 470 523 470 545 c 2
EndSplineSet
LCarets2: 2 0 0
Ligature2: "Not your mama's contextual ligatures" f f l
EndChar

StartChar: uniFFFD
Encoding: 65533 65533 547
Width: 775
Flags: HW
LayerCount: 2
Fore
SplineSet
716 0 m 2
 680 0 l 2
 467 0 651 345 425 345 c 2
 290 345 l 2
 282 345 275 345 270 345 c 0
 249 345 245 342 245 311 c 2
 245 111 l 2
 245 100 244 90 244 83 c 0
 244 61 249 55 284 55 c 2
 326 55 l 2
 355 55 355 54 355 25 c 0
 355 3 349 -1 336 -1 c 0
 330 -1 322 0 312 0 c 2
 92 0 l 2
 81 0 71 -1 64 -1 c 0
 47 -1 40 3 40 31 c 0
 40 54 41 55 61 55 c 0
 63 55 64 55 66 55 c 2
 116 55 l 2
 147 55 150 58 150 80 c 0
 150 85 150 91 150 97 c 2
 150 667 l 2
 150 693 147 695 127 695 c 0
 124 695 121 695 118 695 c 2
 74 695 l 2
 71 695 68 695 65 695 c 0
 43 695 40 697 40 725 c 0
 40 747 45 751 58 751 c 0
 64 751 71 750 80 750 c 2
 435 750 l 2
 616 750 685 660 685 550 c 0
 685 473 647 411 562 385 c 4
 540 378 529 376 529 372 c 0
 529 368 539 364 558 355 c 4
 710 286 612 55 706 55 c 2
 722 55 l 2
 727 55 731 55 735 55 c 0
 753 55 755 53 755 27 c 0
 755 3 751 0 736 -0 c 0
 731 0 724 0 716 0 c 2
292 405 m 2
 435 405 l 2
 511 405 585 451 585 550 c 0
 585 649 511 695 435 695 c 2
 292 695 l 2
 287 695 282 695 278 695 c 0
 247 695 245 693 245 653 c 2
 245 451 l 2
 245 405 246 405 292 405 c 2
EndSplineSet
EndChar
